<?xml version="1.0" encoding="UTF-8" standalone="no"?>
<!-- Created with Inkscape (http://www.inkscape.org/) -->

<svg
   xmlns:dc="http://purl.org/dc/elements/1.1/"
   xmlns:cc="http://creativecommons.org/ns#"
   xmlns:rdf="http://www.w3.org/1999/02/22-rdf-syntax-ns#"
   xmlns:svg="http://www.w3.org/2000/svg"
   xmlns="http://www.w3.org/2000/svg"
   xmlns:sodipodi="http://sodipodi.sourceforge.net/DTD/sodipodi-0.dtd"
   xmlns:inkscape="http://www.inkscape.org/namespaces/inkscape"
   version="1.0"
   width="1000"
   height="1000"
   id="svg5496"
   sodipodi:version="0.32"
   inkscape:version="0.48.1 r9760"
   sodipodi:docname="3.svg"
   inkscape:output_extension="org.inkscape.output.svg.inkscape">
  <metadata
     id="metadata5594">
    <rdf:RDF>
      <cc:Work
         rdf:about="">
        <dc:format>image/svg+xml</dc:format>
        <dc:type
           rdf:resource="http://purl.org/dc/dcmitype/StillImage" />
        <dc:title />
      </cc:Work>
    </rdf:RDF>
  </metadata>
  <sodipodi:namedview
     inkscape:window-height="770"
     inkscape:window-width="1280"
     inkscape:pageshadow="2"
     inkscape:pageopacity="0.0"
     borderopacity="1.0"
     bordercolor="#666666"
     pagecolor="#ffffff"
     id="base"
     showgrid="false"
     showguides="true"
     inkscape:guide-bbox="true"
     inkscape:zoom="0.25583516"
     inkscape:cx="70.934261"
     inkscape:cy="315.97637"
     inkscape:window-x="0"
     inkscape:window-y="0"
     inkscape:current-layer="svg5496"
     inkscape:window-maximized="1">
    <sodipodi:guide
       orientation="horizontal"
       position="200"
       id="guide5596" />
  </sodipodi:namedview>
  <defs
     id="defs5498">
    <inkscape:perspective
       sodipodi:type="inkscape:persp3d"
       inkscape:vp_x="0 : 500 : 1"
       inkscape:vp_y="0 : 1000 : 0"
       inkscape:vp_z="1000 : 500 : 1"
       inkscape:persp3d-origin="500 : 333.33333 : 1"
       id="perspective2873" />
    <inkscape:perspective
       id="perspective2883"
       inkscape:persp3d-origin="0.5 : 0.33333333 : 1"
       inkscape:vp_z="1 : 0.5 : 1"
       inkscape:vp_y="0 : 1000 : 0"
       inkscape:vp_x="0 : 0.5 : 1"
       sodipodi:type="inkscape:persp3d" />
    <inkscape:perspective
       id="perspective2897"
       inkscape:persp3d-origin="0.5 : 0.33333333 : 1"
       inkscape:vp_z="1 : 0.5 : 1"
       inkscape:vp_y="0 : 1000 : 0"
       inkscape:vp_x="0 : 0.5 : 1"
       sodipodi:type="inkscape:persp3d" />
    <inkscape:perspective
       id="perspective2919"
       inkscape:persp3d-origin="0.5 : 0.33333333 : 1"
       inkscape:vp_z="1 : 0.5 : 1"
       inkscape:vp_y="0 : 1000 : 0"
       inkscape:vp_x="0 : 0.5 : 1"
       sodipodi:type="inkscape:persp3d" />
    <inkscape:perspective
       id="perspective3713"
       inkscape:persp3d-origin="0.5 : 0.33333333 : 1"
       inkscape:vp_z="1 : 0.5 : 1"
       inkscape:vp_y="0 : 1000 : 0"
       inkscape:vp_x="0 : 0.5 : 1"
       sodipodi:type="inkscape:persp3d" />
    <inkscape:perspective
       id="perspective3735"
       inkscape:persp3d-origin="0.5 : 0.33333333 : 1"
       inkscape:vp_z="1 : 0.5 : 1"
       inkscape:vp_y="0 : 1000 : 0"
       inkscape:vp_x="0 : 0.5 : 1"
       sodipodi:type="inkscape:persp3d" />
    <inkscape:perspective
       id="perspective3735-7"
       inkscape:persp3d-origin="0.5 : 0.33333333 : 1"
       inkscape:vp_z="1 : 0.5 : 1"
       inkscape:vp_y="0 : 1000 : 0"
       inkscape:vp_x="0 : 0.5 : 1"
       sodipodi:type="inkscape:persp3d" />
    <inkscape:perspective
       id="perspective3735-1"
       inkscape:persp3d-origin="0.5 : 0.33333333 : 1"
       inkscape:vp_z="1 : 0.5 : 1"
       inkscape:vp_y="0 : 1000 : 0"
       inkscape:vp_x="0 : 0.5 : 1"
       sodipodi:type="inkscape:persp3d" />
    <inkscape:perspective
       id="perspective3735-9"
       inkscape:persp3d-origin="0.5 : 0.33333333 : 1"
       inkscape:vp_z="1 : 0.5 : 1"
       inkscape:vp_y="0 : 1000 : 0"
       inkscape:vp_x="0 : 0.5 : 1"
       sodipodi:type="inkscape:persp3d" />
    <inkscape:perspective
       id="perspective3784"
       inkscape:persp3d-origin="0.5 : 0.33333333 : 1"
       inkscape:vp_z="1 : 0.5 : 1"
       inkscape:vp_y="0 : 1000 : 0"
       inkscape:vp_x="0 : 0.5 : 1"
       sodipodi:type="inkscape:persp3d" />
    <inkscape:perspective
       id="perspective3831"
       inkscape:persp3d-origin="0.5 : 0.33333333 : 1"
       inkscape:vp_z="1 : 0.5 : 1"
       inkscape:vp_y="0 : 1000 : 0"
       inkscape:vp_x="0 : 0.5 : 1"
       sodipodi:type="inkscape:persp3d" />
    <inkscape:perspective
       id="perspective3869"
       inkscape:persp3d-origin="0.5 : 0.33333333 : 1"
       inkscape:vp_z="1 : 0.5 : 1"
       inkscape:vp_y="0 : 1000 : 0"
       inkscape:vp_x="0 : 0.5 : 1"
       sodipodi:type="inkscape:persp3d" />
    <inkscape:perspective
       id="perspective3869-3"
       inkscape:persp3d-origin="0.5 : 0.33333333 : 1"
       inkscape:vp_z="1 : 0.5 : 1"
       inkscape:vp_y="0 : 1000 : 0"
       inkscape:vp_x="0 : 0.5 : 1"
       sodipodi:type="inkscape:persp3d" />
  </defs>
  <path
     style="font-size:medium;font-style:normal;font-variant:normal;font-weight:normal;font-stretch:normal;text-indent:0;text-align:start;text-decoration:none;line-height:normal;letter-spacing:normal;word-spacing:normal;text-transform:none;direction:ltr;block-progression:tb;writing-mode:lr-tb;text-anchor:start;baseline-shift:baseline;color:#000000;fill:#000000;fill-opacity:1;stroke:none;stroke-width:45;marker:none;visibility:visible;display:inline;overflow:visible;enable-background:accumulate;font-family:Sans;-inkscape-font-specification:Sans"
     d="M 680.34375,400.375 C 665.42999,400.76104 651.18146,405.19615 639,413 c -0.68905,0.44143 -1.41854,0.81776 -2.09375,1.28125 -33.99563,19.8086 -51.17831,68.92089 -24.96875,111.34375 a 22.50225,22.50225 0 0 0 0.6875,1 c 14.51929,20.89372 36.02374,31.18258 55.1875,33.03125 17.42931,1.68135 33.10033,-0.43519 50.375,-0.5625 l -0.0312,39.4375 a 22.50225,22.50225 0 0 0 0,0.125 c -0.002,-0.35688 1.48265,0.28703 -0.96875,0.3125 l -207.875,0 c -10.81617,-0.66526 -20.65541,-12.9077 -20.53125,-16.9375 a 22.50225,22.50225 0 0 0 0,-1.09375 l -1.09375,-63.65625 -45,0.78125 1.09375,63.65625 0.0312,0 c -0.43608,34.65886 28.93315,60.53296 63.5,62.21875 a 22.50225,22.50225 0 0 0 1.09375,0.0312 l 209,0 a 22.50225,22.50225 0 0 0 0.25,0 c 25.96279,-0.26977 45.55379,-22.06807 45.5,-45.40625 -10e-5,-0.0418 2.2e-4,-0.0832 0,-0.125 L 763.1875,559 l 71.875,-0.0312 -0.0312,-45 L 763.21875,514 763.25,475.28125 A 22.50225,22.50225 0 0 0 763,472 c -5.1715,-35.29201 -28.43619,-59.27566 -53.9375,-67.4375 -9.56299,-3.06069 -19.26433,-4.43223 -28.71875,-4.1875 z m 6.0625,45.46875 c 3.08887,0.16033 6.12552,0.66251 8.9375,1.5625 11.02972,3.53013 19.66459,9.90443 22.90625,30 l -0.0312,36.65625 c -20.43805,-0.008 -36.37001,1.75052 -46.09375,0.8125 -10.54166,-1.01692 -14.01117,-1.79281 -22.25,-13.53125 -12.85643,-21.60882 -0.23396,-43.0075 10.375,-48.6875 a 22.50225,22.50225 0 0 0 2.125,-1.28125 c 5.0875,-3.49226 14.76465,-6.01224 24.03125,-5.53125 z"
     id="path5606"
     inkscape:connector-curvature="0" />
  <path
     style="font-size:medium;font-style:normal;font-variant:normal;font-weight:normal;font-stretch:normal;text-indent:0;text-align:start;text-decoration:none;line-height:normal;letter-spacing:normal;word-spacing:normal;text-transform:none;direction:ltr;block-progression:tb;writing-mode:lr-tb;text-anchor:start;baseline-shift:baseline;color:#000000;fill:#ee0000;fill-opacity:1;stroke:none;stroke-width:45;marker:none;visibility:visible;display:inline;overflow:visible;enable-background:accumulate;font-family:Sans;-inkscape-font-specification:Sans"
     d="m 622.21875,317.53125 a 22.50225,22.50225 0 1 0 0,45 22.50225,22.50225 0 1 0 0,-45 z"
     id="path3965"
     inkscape:connector-curvature="0" />
  <path
     style="font-size:medium;font-style:normal;font-variant:normal;font-weight:normal;font-stretch:normal;text-indent:0;text-align:start;text-decoration:none;line-height:normal;letter-spacing:normal;word-spacing:normal;text-transform:none;direction:ltr;block-progression:tb;writing-mode:lr-tb;text-anchor:start;baseline-shift:baseline;color:#000000;fill:#000000;fill-opacity:1;stroke:none;stroke-width:45;marker:none;visibility:visible;display:inline;overflow:visible;enable-background:accumulate;font-family:Sans;-inkscape-font-specification:Sans"
     d="m -142.78125,438.09375 -45,0.84375 1.09375,57.6875 0.0625,0 c -0.19002,20.12314 10.8787,34.60229 23.46875,46.15625 12.83053,11.77465 28.70311,21.09016 48,22.03125 a 22.50225,22.50225 0 0 0 1.125,0.0312 l 163.90625,0 a 22.50225,22.50225 0 0 0 0.25,0 c 25.949993,-0.26963 45.503175,-22.08107 45.46875,-45.40625 l 0.03125,0 c -8.1e-5,-0.0522 2.78e-4,-0.10402 0,-0.15625 l 0.09375,-80.53125 -45,-0.0625 -0.09375,80.6875 a 22.50225,22.50225 0 0 0 0,0.15625 c -0.0019,-0.35688 1.482649,0.28703 -0.96875,0.3125 l -162.59375,0 c -3.61566,-0.17633 -13.12221,-4.10771 -19.78125,-10.21875 -6.65904,-6.11104 -8.935,-13.84534 -8.96875,-12.75 a 22.50225,22.50225 0 0 0 0,-1.125 l -1.09375,-57.65625 z"
     id="path5606-7"
     inkscape:connector-curvature="0" />
  <path
     style="font-size:medium;font-style:normal;font-variant:normal;font-weight:normal;font-stretch:normal;text-indent:0;text-align:start;text-decoration:none;line-height:normal;letter-spacing:normal;word-spacing:normal;text-transform:none;direction:ltr;block-progression:tb;writing-mode:lr-tb;text-anchor:start;baseline-shift:baseline;color:#000000;fill:#ee0000;fill-opacity:1;stroke:none;stroke-width:45;marker:none;visibility:visible;display:inline;overflow:visible;enable-background:accumulate;font-family:Sans;-inkscape-font-specification:Sans"
     d="m -6.46875,358.34375 a 22.50225,22.50225 0 1 0 0,45 22.50225,22.50225 0 1 0 0,-45 z"
     id="path3965-2"
     inkscape:connector-curvature="0" />
  <path
     style="font-size:medium;font-style:normal;font-variant:normal;font-weight:normal;font-stretch:normal;text-indent:0;text-align:start;text-decoration:none;line-height:normal;letter-spacing:normal;word-spacing:normal;text-transform:none;direction:ltr;block-progression:tb;writing-mode:lr-tb;text-anchor:start;baseline-shift:baseline;color:#000000;fill:#ee0000;fill-opacity:1;stroke:none;stroke-width:45;marker:none;visibility:visible;display:inline;overflow:visible;enable-background:accumulate;font-family:Sans;-inkscape-font-specification:Sans"
     d="m -44.90625,595.625 a 22.50225,22.50225 0 1 0 0,45 22.50225,22.50225 0 1 0 0,-45 z"
     id="path3965-3"
     inkscape:connector-curvature="0" />
  <path
     style="font-size:medium;font-style:normal;font-variant:normal;font-weight:normal;font-stretch:normal;text-indent:0;text-align:start;text-decoration:none;line-height:normal;letter-spacing:normal;word-spacing:normal;text-transform:none;direction:ltr;block-progression:tb;writing-mode:lr-tb;text-anchor:start;baseline-shift:baseline;color:#000000;fill:#ee0000;fill-opacity:1;stroke:none;stroke-width:45;marker:none;visibility:visible;display:inline;overflow:visible;enable-background:accumulate;font-family:Sans;-inkscape-font-specification:Sans"
     d="m -83.78125,358.75 a 22.50225,22.50225 0 1 0 0,45 22.50225,22.50225 0 1 0 0,-45 z"
     id="path3965-1"
     inkscape:connector-curvature="0" />
  <path
     style="font-size:medium;font-style:normal;font-variant:normal;font-weight:normal;font-stretch:normal;text-indent:0;text-align:start;text-decoration:none;line-height:normal;letter-spacing:normal;word-spacing:normal;text-transform:none;direction:ltr;block-progression:tb;writing-mode:lr-tb;text-anchor:start;baseline-shift:baseline;color:#000000;fill:#ee0000;fill-opacity:1;stroke:none;stroke-width:45;marker:none;visibility:visible;display:inline;overflow:visible;enable-background:accumulate;font-family:Sans;-inkscape-font-specification:Sans"
     d="m -46.03125,318.71875 a 22.50225,22.50225 0 1 0 0,45 22.50225,22.50225 0 1 0 0,-45 z"
     id="path3965-0"
     inkscape:connector-curvature="0" />
  <path
     style="font-size:medium;font-style:normal;font-variant:normal;font-weight:normal;font-stretch:normal;text-indent:0;text-align:start;text-decoration:none;line-height:normal;letter-spacing:normal;word-spacing:normal;text-transform:none;direction:ltr;block-progression:tb;writing-mode:lr-tb;text-anchor:start;baseline-shift:baseline;color:#000000;fill:#000000;fill-opacity:1;stroke:none;stroke-width:45;marker:none;visibility:visible;display:inline;overflow:visible;enable-background:accumulate;font-family:Sans;-inkscape-font-specification:Sans"
     d="m 73.28125,-351 c -38.747706,13.77342 -88.789887,34.69781 -125.15625,66.1875 l 0.03125,0.0312 c -4.172586,3.22978 -7.902925,7.08321 -10.84375,11.5 l -0.90625,-74.1875 -45,0.53125 2.90625,234.59375 0,0.4375 0.0312,0 c 0,10.81233 3.14824,22.41346 11.40625,31.5625 8.340997,9.240981 21.379224,14.244791 34.15625,14.1875 0.04154,-1.86e-4 0.08346,2.93e-4 0.125,0 l 120.90625,-0.0625 0.03125,0 c 9.666787,-0.01838 19.074092,-2.168189 26.9375,-7.53125 7.863408,-5.363061 13.15299,-13.926907 15,-21.90625 3.56058,-15.38224 -0.23841,-27.97268 -11.4375,-38.125 l 0.03125,-0.0312 -108.75,-107.09375 -1.25,-1.1875 -1.375,-1.03125 c -4.38975,-3.16793 -5.207852,-5.20588 -5.40625,-5.6875 0.223436,-0.10493 0.154653,0.065 0.96875,-0.5 l 0.96875,-0.6875 0.9375,-0.8125 C 5.4867525,-274.96509 52.07344,-295.68985 88.375,-308.59375 L 73.28125,-351 z M -62.0625,-222.625 c 3.745363,5.5111 8.563497,10.37655 14,14.5625 l 98.375,96.84375 -110.4375,0.0625 -0.0625,0 -0.09375,0 c -0.276227,0.002 -0.114889,1e-4 -0.3125,0 -0.03251,-0.30159 -0.09771,-0.33629 -0.09375,-0.84375 l 0,-0.21875 0,-0.25 -1.375,-110.15625 z m 120.34375,119.25 1.3125,1.28125 c -0.380844,-0.35377 -1.274081,-1.06675 -1.3125,-1.28125 z"
     id="path3782"
     inkscape:connector-curvature="0" />
  <path
     style="font-size:medium;font-style:normal;font-variant:normal;font-weight:normal;font-stretch:normal;text-indent:0;text-align:start;text-decoration:none;line-height:normal;letter-spacing:normal;word-spacing:normal;text-transform:none;direction:ltr;block-progression:tb;writing-mode:lr-tb;text-anchor:start;baseline-shift:baseline;color:#000000;fill:#000000;fill-opacity:1;stroke:none;stroke-width:45;marker:none;visibility:visible;display:inline;overflow:visible;enable-background:accumulate;font-family:Sans;-inkscape-font-specification:Sans"
     d="m -218.90625,1031.2812 0.25,45 c 21.45214,-0.121 52.481,0.4901 75.09375,10.0313 22.41471,9.4577 37.64747,22.5573 37.9375,63.1875 l -191.4375,-0.062 0,45 194.4375,0.062 0,-0.062 c 10.048576,0.2022 21.992461,-2.8625 30.4375,-11.5625 8.674551,-8.9365 11.640715,-20.9759 11.625,-32.4062 -0.0327,-55.778 -31.042257,-91.0728 -65.53125,-105.625 -34.48899,-14.5523 -71.2903,-13.684 -92.8125,-13.5626 z"
     id="path3819"
     inkscape:connector-curvature="0" />
  <path
     style="font-size:medium;font-style:normal;font-variant:normal;font-weight:normal;font-stretch:normal;text-indent:0;text-align:start;text-decoration:none;line-height:normal;letter-spacing:normal;word-spacing:normal;text-transform:none;direction:ltr;block-progression:tb;writing-mode:lr-tb;text-anchor:start;baseline-shift:baseline;color:#000000;fill:#000000;fill-opacity:1;stroke:none;stroke-width:45;marker:none;visibility:visible;display:inline;overflow:visible;enable-background:accumulate;font-family:Sans;-inkscape-font-specification:Sans"
     d="m -202.9375,1070.9062 c -14.64049,0.2362 -29.42806,4.9294 -41.34375,15.25 -11.81903,10.237 -19.78305,26.7704 -19.5625,44.875 0.002,0.1481 -0.0342,0.2893 -0.0312,0.4376 l 0,40.5312 45,0 0,-40.9688 0,-0.2187 0,-0.2187 c -0.12068,-6.1654 1.37615,-8.1066 4.03125,-10.4063 2.6551,-2.2997 7.50221,-4.1986 12.625,-4.2813 5.12279,-0.083 9.90898,1.6132 12.6875,3.9063 2.77852,2.2931 4.65288,4.6152 4.8125,11.7187 l -0.0312,39.4376 45,0.062 0.0312,-39.9687 0,-0.2813 0,-0.25 c -0.41829,-18.6152 -8.83579,-35.2695 -21.15625,-45.4374 -12.32046,-10.168 -27.42201,-14.4237 -42.0625,-14.1876 z"
     id="path3821"
     inkscape:connector-curvature="0" />
  <path
     style="font-size:medium;font-style:normal;font-variant:normal;font-weight:normal;font-stretch:normal;text-indent:0;text-align:start;text-decoration:none;line-height:normal;letter-spacing:normal;word-spacing:normal;text-transform:none;direction:ltr;block-progression:tb;writing-mode:lr-tb;text-anchor:start;baseline-shift:baseline;color:#000000;fill:#000000;fill-opacity:1;stroke:none;stroke-width:45;marker:none;visibility:visible;display:inline;overflow:visible;enable-background:accumulate;font-family:Sans;-inkscape-font-specification:Sans"
     d="m 171.9375,1146.7812 -194.84375,1 0.21875,45 194.84375,-1 -0.21875,-45 z"
     id="path3848"
     inkscape:connector-curvature="0" />
  <path
     style="font-size:medium;font-style:normal;font-variant:normal;font-weight:normal;font-stretch:normal;text-indent:0;text-align:start;text-decoration:none;line-height:normal;letter-spacing:normal;word-spacing:normal;text-transform:none;direction:ltr;block-progression:tb;writing-mode:lr-tb;text-anchor:start;baseline-shift:baseline;color:#000000;fill:#000000;fill-opacity:1;stroke:none;stroke-width:45;marker:none;visibility:visible;display:inline;overflow:visible;enable-background:accumulate;font-family:Sans;-inkscape-font-specification:Sans"
     d="m 75.375,1067.8438 c -14.640489,0.2361 -29.428063,4.9293 -41.34375,15.25 -11.81947,10.2373 -19.752423,26.7695 -19.53125,44.875 0.0018,0.1473 -0.03414,0.2899 -0.03125,0.4374 l 0,40.5 45,0 0,-40.9374 0,-0.2188 0,-0.2188 c -0.120684,-6.1654 1.376148,-8.1378 4.03125,-10.4374 2.655102,-2.2997 7.470966,-4.1674 12.59375,-4.25 5.122784,-0.083 9.940229,1.6131 12.71875,3.9062 2.778521,2.2931 4.652882,4.6152 4.8125,11.7188 l -0.0625,39.4374 45,0.063 0.0625,-40 0,-0.25 -0.0312,-0.2813 c -0.41829,-18.6153 -8.83579,-35.2383 -21.15625,-45.4063 -12.32046,-10.1679 -27.422011,-14.4236 -42.0625,-14.1874 z"
     id="path3821-1"
     inkscape:connector-curvature="0" />
  <path
     style="font-size:medium;font-style:normal;font-variant:normal;font-weight:normal;font-stretch:normal;text-indent:0;text-align:start;text-decoration:none;line-height:normal;letter-spacing:normal;word-spacing:normal;text-transform:none;direction:ltr;block-progression:tb;writing-mode:lr-tb;text-anchor:start;baseline-shift:baseline;color:#000000;fill:#000000;fill-opacity:1;stroke:none;stroke-width:45;marker:none;visibility:visible;display:inline;overflow:visible;enable-background:accumulate;font-family:Sans;-inkscape-font-specification:Sans"
     d="m 93.625,1170.3125 0,40.9687 0,0.2188 0,0.2188 c 0.120677,6.1653 -1.376136,8.1065 -4.03125,10.4062 -2.655114,2.2997 -7.502206,4.1986 -12.625,4.2812 -5.122794,0.083 -9.908978,-1.6131 -12.6875,-3.9062 -2.778522,-2.2931 -4.652883,-4.6152 -4.8125,-11.7188 l 0.03125,-39.4374 -45,-0.063 -0.03125,39.9688 0,0.2812 0,0.25 c 0.418283,18.6153 8.835789,35.2696 21.15625,45.4376 12.320461,10.1679 27.422008,14.4236 42.0625,14.1874 14.640492,-0.2361 29.42806,-4.9293 41.34375,-15.25 11.81903,-10.2369 19.78303,-26.7703 19.5625,-44.875 -0.002,-0.148 0.0342,-0.2892 0.0312,-0.4374 l 0,-40.5313 -45,0 z"
     id="path3821-4"
     inkscape:connector-curvature="0" />
</svg>
