<?xml version="1.0" encoding="UTF-8" standalone="no"?>
<!-- Created with Inkscape (http://www.inkscape.org/) -->

<svg
   xmlns:dc="http://purl.org/dc/elements/1.1/"
   xmlns:cc="http://creativecommons.org/ns#"
   xmlns:rdf="http://www.w3.org/1999/02/22-rdf-syntax-ns#"
   xmlns:svg="http://www.w3.org/2000/svg"
   xmlns="http://www.w3.org/2000/svg"
   xmlns:sodipodi="http://sodipodi.sourceforge.net/DTD/sodipodi-0.dtd"
   xmlns:inkscape="http://www.inkscape.org/namespaces/inkscape"
   id="svg2"
   version="1.1"
   inkscape:version="0.91 r"
   xml:space="preserve"
   width="4687.5"
   height="1836.25"
   viewBox="0 0 4687.5 1836.25"
   sodipodi:docname="1.svg"><metadata
     id="metadata8"><rdf:RDF><cc:Work
         rdf:about=""><dc:format>image/svg+xml</dc:format><dc:type
           rdf:resource="http://purl.org/dc/dcmitype/StillImage" /><dc:title /></cc:Work></rdf:RDF></metadata><defs
     id="defs6" /><sodipodi:namedview
     pagecolor="#ffffff"
     bordercolor="#666666"
     borderopacity="1"
     objecttolerance="10"
     gridtolerance="10"
     guidetolerance="10"
     inkscape:pageopacity="0"
     inkscape:pageshadow="2"
     inkscape:window-width="1366"
     inkscape:window-height="718"
     id="namedview4"
     showgrid="false"
     inkscape:zoom="0.3491801"
     inkscape:cx="4033.9473"
     inkscape:cy="564.59814"
     inkscape:window-x="0"
     inkscape:window-y="0"
     inkscape:window-maximized="1"
     inkscape:current-layer="g10" /><g
     id="g10"
     inkscape:groupmode="layer"
     inkscape:label="ink_ext_XXXXXX"
     transform="matrix(1.25,0,0,-1.25,0,1836.25)"><g
       id="g12"
       transform="scale(0.255624,0.255624)"><path
         d="m 8875.92,1965.77 0.03,-361.56 c 0,-38.86 -29.72,-68.78 -70.62,-68.78 l -109.32,0"
         style="fill:none;stroke:#000000;stroke-width:140.83200073;stroke-linecap:butt;stroke-linejoin:round;stroke-miterlimit:4;stroke-dasharray:none;stroke-opacity:1"
         id="path14"
         inkscape:connector-curvature="0" /><path
         d="m 8632.36,1965.58 0,-361.55 c 0,-38.86 -29.72,-68.78 -70.59,-68.78 l -109.32,0"
         style="fill:none;stroke:#000000;stroke-width:140.83200073;stroke-linecap:butt;stroke-linejoin:round;stroke-miterlimit:4;stroke-dasharray:none;stroke-opacity:1"
         id="path16"
         inkscape:connector-curvature="0" /><path
         d="m 8389.04,1968.32 0,-630.69 c 0,-38.88 -29.72,-69.03 -70.6,-68.78 l -354.87,2.14 c -36.3463,-0.3684 -64.75,36.4694 -64.75,74.52 l -4.11,369.88"
         style="fill:none;stroke:#000000;stroke-width:140.83200073;stroke-linecap:butt;stroke-linejoin:round;stroke-miterlimit:4;stroke-dasharray:none;stroke-opacity:1"
         id="path18"
         inkscape:connector-curvature="0"
         sodipodi:nodetypes="cscccc" /><path
         d="m 6862.02,1558.34 c 138.41,190.8 271.42,389.3 425.47,332.29 65.99,-27.37 99.14,-87.78 101.27,-196.75 l 3.74,-89.29 c 1.62,-38.83 -29.71,-68.78 -70.61,-68.78 l -719.61,0"
         style="fill:none;stroke:#000000;stroke-width:140.83200073;stroke-linecap:butt;stroke-linejoin:round;stroke-miterlimit:4;stroke-dasharray:none;stroke-opacity:1"
         id="path20"
         inkscape:connector-curvature="0" /><path
         d="m 6786.83,1834.59 -0.4,-238.4"
         style="fill:none;stroke:#000000;stroke-width:140.83200073;stroke-linecap:butt;stroke-linejoin:miter;stroke-miterlimit:4;stroke-dasharray:none;stroke-opacity:1"
         id="path22"
         inkscape:connector-curvature="0" /><path
         d="m 5629.29,1558.24 c 138.42,190.81 271.42,389.31 425.48,332.3 65.98,-27.37 99.14,-87.78 101.27,-196.75 l 3.74,-89.29 c 1.62,-38.83 -29.72,-68.78 -70.62,-68.78 l -534.04,0"
         style="fill:none;stroke:#000000;stroke-width:140.83200073;stroke-linecap:butt;stroke-linejoin:round;stroke-miterlimit:4;stroke-dasharray:none;stroke-opacity:1"
         id="path24"
         inkscape:connector-curvature="0" /><path
         d="m 5555.09,1834.38 0,-483.04 c 0,-38.88 -29.73,-69.03 -70.6,-68.78 l -354.88,2.13 c -37.823,0 -64.75,35.4743 -64.75,74.53 l -4.11,369.89"
         style="fill:none;stroke:#000000;stroke-width:140.83200073;stroke-linecap:butt;stroke-linejoin:round;stroke-miterlimit:4;stroke-dasharray:none;stroke-opacity:1"
         id="path26"
         inkscape:connector-curvature="0"
         sodipodi:nodetypes="cscccc" /><path
         d="m 2950.98,1404.45 614.23,0.3 c 80.47,0.15 71.34,88.4 46.25,109.67 l -371.67,378.97 c -45.99,40.93 -38.5931,101.3656 -3.65,120.65 131.13,80.96 407.2438,143.0047 456.97,143.8"
         style="fill:none;stroke:#000000;stroke-width:140.83200073;stroke-linecap:butt;stroke-linejoin:miter;stroke-miterlimit:4;stroke-dasharray:none;stroke-opacity:1"
         id="path28"
         inkscape:connector-curvature="0"
         sodipodi:nodetypes="cccccc" /><path
         d="m 800.125,1709.13 3.453,-313.97 c -1.89,-61.44 60.164,-122.14 131.863,-125.64 l 548.779,0 c 44.53,0.46 72.86,35.73 72.68,71.76 l 0.29,385.81 c -25.84,176.34 -200.75,190.75 -285.13,132.84 -72.16,-38.65 -120.99,-151.48 -58.02,-253.4 72.03,-103.65 155.75,-68.53 290.02,-71.17 l 348.27,0.18"
         style="fill:none;stroke:#060606;stroke-width:140.83200073;stroke-linecap:butt;stroke-linejoin:round;stroke-miterlimit:4;stroke-dasharray:none;stroke-opacity:1"
         id="path30"
         inkscape:connector-curvature="0" /><path
         d="m 4514.77,1149.1 -319.42,0.15 c -65.04,-1.12 -112.57,45.75 -112.52,106.38 l -0.19,153.26 c -0.07,60.86 53.83,127.07 122.06,127 l 326.65,0 c 8.46,-0.23 29.95,13.95 31.66,22.13 2.04,11.23 5.06,-0.19 4.07,18.44 -55.09,0.21 -101.99,42.74 -142.17,86.9 -51.66,56.82 -110.77,157.75 -258.11,214.17"
         style="fill:none;stroke:#000000;stroke-width:140.83200073;stroke-linecap:butt;stroke-linejoin:miter;stroke-miterlimit:4;stroke-dasharray:none;stroke-opacity:1"
         id="path32"
         inkscape:connector-curvature="0" /><path
         d="m 2086.87,1535.66 640.94,0 c 8.47,-0.23 29.95,13.95 31.66,22.11 2.05,11.23 5.08,10.88 4.08,29.52 -55.1,0.22 -103.56,37.06 -146.85,75.83 -56.48,50.57 -118.45,121.59 -187.7,170.36 -73.3,51.61 -145.84,68.99 -200.77,82.81"
         style="fill:none;stroke:#000000;stroke-width:140.83200073;stroke-linecap:butt;stroke-linejoin:miter;stroke-miterlimit:4;stroke-dasharray:none;stroke-opacity:1"
         id="path34"
         inkscape:connector-curvature="0" /><path
         d="m 510.195,1172.77 -383.359,0.16 c -31.422744,-0.3877 -56.005871,26.472 -56.2032,62.56 l -0.1836,235.24 c 1.586,35.07 18.7656,64.33 59.4568,64.41 15.024,-0.32 298.489,2.14 380.336,1.01"
         style="fill:none;stroke:#000000;stroke-width:140.83200073;stroke-linecap:butt;stroke-linejoin:miter;stroke-miterlimit:4;stroke-dasharray:none;stroke-opacity:1"
         id="path36"
         inkscape:connector-curvature="0"
         sodipodi:nodetypes="cccccc" /><path
         d="m 458.102,1804.11 c -22.25,9.57 -43.672,17.2 -64.059,23 -207.367,58.78 -308.7422,-73.37 -107.719,-290.82"
         style="fill:none;stroke:#000000;stroke-width:140.83200073;stroke-linecap:butt;stroke-linejoin:round;stroke-miterlimit:4;stroke-dasharray:none;stroke-opacity:1"
         id="path38"
         inkscape:connector-curvature="0" /><path
         d="m 1175.1,2144.05 0,0"
         style="fill:none;stroke:#ee0000;stroke-width:140.83200073;stroke-linecap:round;stroke-linejoin:miter;stroke-miterlimit:4;stroke-dasharray:none;stroke-opacity:1"
         id="path40"
         inkscape:connector-curvature="0" /><path
         d="m 1425.19,2143.37 0,0"
         style="fill:none;stroke:#ee0000;stroke-width:140.83200073;stroke-linecap:round;stroke-linejoin:miter;stroke-miterlimit:4;stroke-dasharray:none;stroke-opacity:1"
         id="path42"
         inkscape:connector-curvature="0" /><path
         d="m 197.797,2028.05 0,0"
         style="fill:none;stroke:#ee0000;stroke-width:140.83200073;stroke-linecap:round;stroke-linejoin:miter;stroke-miterlimit:4;stroke-dasharray:none;stroke-opacity:1"
         id="path44"
         inkscape:connector-curvature="0" /><path
         d="m 2652,2021.04 0,0"
         style="fill:none;stroke:#ee0000;stroke-width:140.83200073;stroke-linecap:round;stroke-linejoin:miter;stroke-miterlimit:4;stroke-dasharray:none;stroke-opacity:1"
         id="path46"
         inkscape:connector-curvature="0" /><path
         d="m 2523.24,1279.9 0,0"
         style="fill:none;stroke:#ee0000;stroke-width:140.83200073;stroke-linecap:round;stroke-linejoin:miter;stroke-miterlimit:4;stroke-dasharray:none;stroke-opacity:1"
         id="path48"
         inkscape:connector-curvature="0" /><path
         d="m 4330.2,1339.94 0,0"
         style="fill:none;stroke:#ee0000;stroke-width:140.83200073;stroke-linecap:round;stroke-linejoin:miter;stroke-miterlimit:4;stroke-dasharray:none;stroke-opacity:1"
         id="path50"
         inkscape:connector-curvature="0" /><path
         d="m 4437.19,1906.55 0,0"
         style="fill:none;stroke:#ee0000;stroke-width:140.83200073;stroke-linecap:round;stroke-linejoin:miter;stroke-miterlimit:4;stroke-dasharray:none;stroke-opacity:1"
         id="path52"
         inkscape:connector-curvature="0" /><path
         d="m 5676.27,2019.04 0.01,0"
         style="fill:none;stroke:#ee0000;stroke-width:140.83200073;stroke-linecap:round;stroke-linejoin:miter;stroke-miterlimit:4;stroke-dasharray:none;stroke-opacity:1"
         id="path54"
         inkscape:connector-curvature="0" /><path
         d="m 6909.43,2021.93 0,0"
         style="fill:none;stroke:#ee0000;stroke-width:143.68800354;stroke-linecap:round;stroke-linejoin:miter;stroke-miterlimit:4;stroke-dasharray:none;stroke-opacity:1"
         id="path56"
         inkscape:connector-curvature="0" /><path
         d="m 8765.89,2145.75 0,0"
         style="fill:none;stroke:#ee0000;stroke-width:140.83200073;stroke-linecap:round;stroke-linejoin:miter;stroke-miterlimit:4;stroke-dasharray:none;stroke-opacity:1"
         id="path58"
         inkscape:connector-curvature="0" /><path
         d="m 8510.36,2146.33 0,0"
         style="fill:none;stroke:#ee0000;stroke-width:140.83200073;stroke-linecap:round;stroke-linejoin:miter;stroke-miterlimit:4;stroke-dasharray:none;stroke-opacity:1"
         id="path60"
         inkscape:connector-curvature="0" /><path
         d="m 8636.64,2271.45 0,0"
         style="fill:none;stroke:#ee0000;stroke-width:140.83200073;stroke-linecap:round;stroke-linejoin:miter;stroke-miterlimit:4;stroke-dasharray:none;stroke-opacity:1"
         id="path62"
         inkscape:connector-curvature="0" /><path
         d="m 6122.97,3001.21 0.03,-361.56 c 0,-38.86 -29.72,-68.76 -70.62,-68.78 l -109.32,0"
         style="fill:none;stroke:#000000;stroke-width:140.83200073;stroke-linecap:butt;stroke-linejoin:round;stroke-miterlimit:4;stroke-dasharray:none;stroke-opacity:1"
         id="path64"
         inkscape:connector-curvature="0" /><path
         d="m 5879.41,3001.02 0,-361.55 c 0,-38.86 -29.72,-68.77 -70.59,-68.77 l -109.34,-0.01"
         style="fill:none;stroke:#000000;stroke-width:140.83200073;stroke-linecap:butt;stroke-linejoin:round;stroke-miterlimit:4;stroke-dasharray:none;stroke-opacity:1"
         id="path66"
         inkscape:connector-curvature="0" /><path
         d="m 5636.09,3003.77 0,-630.7 c 0,-38.86 -29.72,-69.02 -70.6,-68.78 l -354.87,2.16 c -46.95,0 -68.86,34.41 -64.75,74.52 l -4.11,369.87"
         style="fill:none;stroke:#000000;stroke-width:140.83200073;stroke-linecap:butt;stroke-linejoin:round;stroke-miterlimit:4;stroke-dasharray:none;stroke-opacity:1"
         id="path68"
         inkscape:connector-curvature="0" /><path
         d="m 11086,2141.56 356.5,-1.63 c 38.8,-0.17 68.7,-29.73 68.7,-70.6 l 0,-732.13"
         style="fill:none;stroke:#000000;stroke-width:140.83200073;stroke-linecap:butt;stroke-linejoin:round;stroke-miterlimit:4;stroke-dasharray:none;stroke-opacity:1"
         id="path70"
         inkscape:connector-curvature="0" /><path
         d="m 14026.9,2141.61 -231.3,-1.64 c -38.9,-0.27 -68.8,-29.72 -68.8,-70.6 l 0,-732.12"
         style="fill:none;stroke:#000000;stroke-width:140.83200073;stroke-linecap:butt;stroke-linejoin:round;stroke-miterlimit:4;stroke-dasharray:none;stroke-opacity:1"
         id="path72"
         inkscape:connector-curvature="0" /><path
         d="m 14150.2,2213.08 0,-876.08"
         style="fill:none;stroke:#000000;stroke-width:140.83200073;stroke-linecap:butt;stroke-linejoin:round;stroke-miterlimit:4;stroke-dasharray:none;stroke-opacity:1"
         id="path74"
         inkscape:connector-curvature="0" /><path
         d="m 14602.7,2341.53 -0.6,-736.36"
         style="fill:none;stroke:#000000;stroke-width:140.83200073;stroke-linecap:butt;stroke-linejoin:round;stroke-miterlimit:4;stroke-dasharray:none;stroke-opacity:1"
         id="path76"
         inkscape:connector-curvature="0" /><path
         d="m 14531.5,1465.24 c 75.2,0.03 140.9,65.99 141,140.68 l -140.8,0.04 0,0 -0.2,-140.72 z"
         style="fill:#000000;fill-opacity:1;fill-rule:nonzero;stroke:none"
         id="path78"
         inkscape:connector-curvature="0" /><path
         d="m 13522.9,2211.53 0,-242.63 c 0,-38.86 -29.7,-68.77 -70.6,-68.78 l -109.3,0"
         style="fill:none;stroke:#000000;stroke-width:140.83200073;stroke-linecap:butt;stroke-linejoin:round;stroke-miterlimit:4;stroke-dasharray:none;stroke-opacity:1"
         id="path80"
         inkscape:connector-curvature="0" /><path
         d="m 13279.4,2211.35 0,-242.64 c 0,-38.86 -29.7,-68.76 -70.6,-68.76 l -109.4,-0.02"
         style="fill:none;stroke:#000000;stroke-width:140.83200073;stroke-linecap:butt;stroke-linejoin:round;stroke-miterlimit:4;stroke-dasharray:none;stroke-opacity:1"
         id="path82"
         inkscape:connector-curvature="0" /><path
         d="m 13034.6,2211.79 0,-876.58"
         style="fill:none;stroke:#000000;stroke-width:140.83200073;stroke-linecap:butt;stroke-linejoin:round;stroke-miterlimit:4;stroke-dasharray:none;stroke-opacity:1"
         id="path84"
         inkscape:connector-curvature="0" /><path
         d="M 9487.23,5688.41 9255,5518.26 c -51.65,-37.08 -36,-68.37 2.18,-109.52 l 176.32,-160.87 -190.8,-212.76 c -32.69,-35.18 -47.85,-70.58 -11.36,-94 l 416.11,-0.81"
         style="fill:none;stroke:#000000;stroke-width:140.83200073;stroke-linecap:butt;stroke-linejoin:round;stroke-miterlimit:4;stroke-dasharray:none;stroke-opacity:1"
         id="path86"
         inkscape:connector-curvature="0" /><path
         d="m 12715.2,2142.88 -208.1,-153.83 c -35.681,-30.928 -68.301,-47.009 -10.3,-90.75 l 170,-117.04 -178.3,-256.59 c -27,-37.65 -76.319,-119.3759 -3.378,-119.03 l 376.878,-0.8"
         style="fill:none;stroke:#000000;stroke-width:140.83200073;stroke-linecap:butt;stroke-linejoin:round;stroke-miterlimit:4;stroke-dasharray:none;stroke-opacity:1"
         id="path88"
         inkscape:connector-curvature="0"
         sodipodi:nodetypes="ccccccc" /><path
         d="m 9615.29,1336.76 0.3,642.44 c -25.84,176.33 -200.75,190.73 -285.13,132.82 -72.17,-38.64 -121,-151.48 -58.04,-253.38 72.03,-103.67 158.59,-68.06 290.04,-77.44"
         style="fill:none;stroke:#000000;stroke-width:140.83200073;stroke-linecap:butt;stroke-linejoin:round;stroke-miterlimit:4;stroke-dasharray:none;stroke-opacity:1"
         id="path90"
         inkscape:connector-curvature="0" /><path
         d="m 10942.6,2197.43 -202.5,-771.71 c -9.5,-23.37 -52.7,-24.57 -66,-0.3 l -247.9,772.01"
         style="fill:none;stroke:#000000;stroke-width:140.83200073;stroke-linecap:butt;stroke-linejoin:round;stroke-miterlimit:4;stroke-dasharray:none;stroke-opacity:1"
         id="path92"
         inkscape:connector-curvature="0" /><path
         d="m 9846.63,1356.63 202.57,771.7 c 9.5,23.38 52.7,24.57 66,0.3 l 247.8,-772"
         style="fill:none;stroke:#000000;stroke-width:140.83200073;stroke-linecap:butt;stroke-linejoin:round;stroke-miterlimit:4;stroke-dasharray:none;stroke-opacity:1"
         id="path94"
         inkscape:connector-curvature="0" /><path
         d="m 12072.8,2085.02 c 166.7,-102.55 310.7,-698.32 -74.2,-700.72 -384.8,-2.39 -244.3,589.84 -82.6,696.76 50.4,33.35 106.9,34.64 156.8,3.96 z"
         style="fill:none;stroke:#000000;stroke-width:132.04299927;stroke-linecap:butt;stroke-linejoin:round;stroke-miterlimit:4;stroke-dasharray:none;stroke-opacity:1"
         id="path96"
         inkscape:connector-curvature="0" /><path
         d="m 4606.96,70.3984 -831.57,0.1563 C 3488.73,80.043 3505.2,330.395 3672.85,373.813 c 146.65,37.988 130.45,99.644 162.39,145.199 96.78,138.051 245.1,81.039 316.46,36.308"
         style="fill:none;stroke:#000000;stroke-width:140.83200073;stroke-linecap:butt;stroke-linejoin:round;stroke-miterlimit:4;stroke-dasharray:none;stroke-opacity:1"
         id="path98"
         inkscape:connector-curvature="0" /><path
         d="M 1274.41,2540.77 910.855,2173.57"
         style="fill:none;stroke:#000000;stroke-width:78.23999786;stroke-linecap:butt;stroke-linejoin:round;stroke-miterlimit:4;stroke-dasharray:none;stroke-opacity:1"
         id="path100"
         inkscape:connector-curvature="0" /><path
         d="M 1275.83,2792.54 912.273,2425.35"
         style="fill:none;stroke:#000000;stroke-width:78.23999786;stroke-linecap:butt;stroke-linejoin:miter;stroke-miterlimit:4;stroke-dasharray:none;stroke-opacity:1"
         id="path102"
         inkscape:connector-curvature="0" /><path
         d="M 2291.52,2872.49 1774.8,2870.8"
         style="fill:none;stroke:#000000;stroke-width:78.23999786;stroke-linecap:butt;stroke-linejoin:miter;stroke-miterlimit:4;stroke-dasharray:none;stroke-opacity:1"
         id="path104"
         inkscape:connector-curvature="0" /><path
         d="m 2291.52,2672.2 -516.72,-1.69"
         style="fill:none;stroke:#000000;stroke-width:78.23999786;stroke-linecap:butt;stroke-linejoin:miter;stroke-miterlimit:4;stroke-dasharray:none;stroke-opacity:1"
         id="path106"
         inkscape:connector-curvature="0" /><path
         d="m 2776.8,2914.7 c 75.98,3.23 139.15,-63.61 139.36,-134.46 0,-70.85 -61.01,-128.16 -134.44,-128.53 -73.44,0 -130.45,55.41 -136.43,126.56 -5.99,71.13 55.5,133.27 131.51,136.43 z"
         style="fill:none;stroke:#000000;stroke-width:78.23999786;stroke-linecap:butt;stroke-linejoin:miter;stroke-miterlimit:4;stroke-dasharray:none;stroke-opacity:1"
         id="path108"
         inkscape:connector-curvature="0" /><path
         d="m 3520.8,4019.87 c 75.99,3.22 139.15,-63.61 139.36,-134.46 0,-70.84 -61.02,-128.16 -134.44,-128.53 -73.43,0 -130.45,55.41 -136.43,126.56 -5.99,71.13 55.5,133.27 131.51,136.43 z"
         style="fill:none;stroke:#000000;stroke-width:78.23999786;stroke-linecap:butt;stroke-linejoin:miter;stroke-miterlimit:4;stroke-dasharray:none;stroke-opacity:1"
         id="path110"
         inkscape:connector-curvature="0" /><path
         d="m 3095.63,3753.5 419.33,4.11"
         style="fill:none;stroke:#000000;stroke-width:78.23999786;stroke-linecap:butt;stroke-linejoin:miter;stroke-miterlimit:4;stroke-dasharray:none;stroke-opacity:1"
         id="path112"
         inkscape:connector-curvature="0" /><path
         d="m 2822.48,4107.66 c 49.56,57.7 141.52,58.21 193.4,9.98 51.75,-48.38 51.94,-132.1 2.06,-185.99 -50.15,-53.63 -129.57,-57.44 -185.62,-13.22 -56.03,44.21 -59.45,131.56 -9.84,189.23 z"
         style="fill:none;stroke:#000000;stroke-width:78.23999786;stroke-linecap:butt;stroke-linejoin:miter;stroke-miterlimit:4;stroke-dasharray:none;stroke-opacity:1"
         id="path114"
         inkscape:connector-curvature="0" /><path
         d="m 2726.68,3615.18 283.39,309.11"
         style="fill:none;stroke:#000000;stroke-width:78.23999786;stroke-linecap:butt;stroke-linejoin:miter;stroke-miterlimit:4;stroke-dasharray:none;stroke-opacity:1"
         id="path116"
         inkscape:connector-curvature="0" /><path
         d="m 2185.22,229.43 -581.21,0.152 c -286.66,9.492 -270.19,259.844 -102.54,303.262 146.66,37.972 134.03,97.34 162.4,145.199 70.8,119.437 215.77,111.602 269.72,8.59 34.94,-66.735 80.51,-95.449 155.57,-90.422"
         style="fill:none;stroke:#000300;stroke-width:140.83200073;stroke-linecap:butt;stroke-linejoin:round;stroke-miterlimit:4;stroke-dasharray:none;stroke-opacity:1"
         id="path118"
         inkscape:connector-curvature="0" /></g></g></svg>