<?xml version="1.0" encoding="UTF-8" standalone="no"?>
<!-- Created with Inkscape (http://www.inkscape.org/) -->

<svg
   xmlns:dc="http://purl.org/dc/elements/1.1/"
   xmlns:cc="http://creativecommons.org/ns#"
   xmlns:rdf="http://www.w3.org/1999/02/22-rdf-syntax-ns#"
   xmlns:svg="http://www.w3.org/2000/svg"
   xmlns="http://www.w3.org/2000/svg"
   xmlns:sodipodi="http://sodipodi.sourceforge.net/DTD/sodipodi-0.dtd"
   xmlns:inkscape="http://www.inkscape.org/namespaces/inkscape"
   version="1.0"
   width="1000"
   height="1000"
   id="svg5496"
   sodipodi:version="0.32"
   inkscape:version="0.91 r"
   sodipodi:docname="3.svg"
   inkscape:output_extension="org.inkscape.output.svg.inkscape">
  <metadata
     id="metadata5594">
    <rdf:RDF>
      <cc:Work
         rdf:about="">
        <dc:format>image/svg+xml</dc:format>
        <dc:type
           rdf:resource="http://purl.org/dc/dcmitype/StillImage" />
        <dc:title />
      </cc:Work>
    </rdf:RDF>
  </metadata>
  <sodipodi:namedview
     inkscape:window-height="718"
     inkscape:window-width="1366"
     inkscape:pageshadow="2"
     inkscape:pageopacity="0.0"
     borderopacity="1.0"
     bordercolor="#666666"
     pagecolor="#ffffff"
     id="base"
     showgrid="false"
     showguides="true"
     inkscape:guide-bbox="true"
     inkscape:zoom="0.25815897"
     inkscape:cx="358.83997"
     inkscape:cy="281.78849"
     inkscape:window-x="0"
     inkscape:window-y="0"
     inkscape:current-layer="svg5496"
     inkscape:window-maximized="1">
    <sodipodi:guide
       orientation="horizontal"
       position="200"
       id="guide5596" />
  </sodipodi:namedview>
  <defs
     id="defs5498">
    <inkscape:perspective
       sodipodi:type="inkscape:persp3d"
       inkscape:vp_x="0 : 500 : 1"
       inkscape:vp_y="0 : 1000 : 0"
       inkscape:vp_z="1000 : 500 : 1"
       inkscape:persp3d-origin="500 : 333.33333 : 1"
       id="perspective2873" />
    <inkscape:perspective
       id="perspective2883"
       inkscape:persp3d-origin="0.5 : 0.33333333 : 1"
       inkscape:vp_z="1 : 0.5 : 1"
       inkscape:vp_y="0 : 1000 : 0"
       inkscape:vp_x="0 : 0.5 : 1"
       sodipodi:type="inkscape:persp3d" />
    <inkscape:perspective
       id="perspective2897"
       inkscape:persp3d-origin="0.5 : 0.33333333 : 1"
       inkscape:vp_z="1 : 0.5 : 1"
       inkscape:vp_y="0 : 1000 : 0"
       inkscape:vp_x="0 : 0.5 : 1"
       sodipodi:type="inkscape:persp3d" />
    <inkscape:perspective
       id="perspective2919"
       inkscape:persp3d-origin="0.5 : 0.33333333 : 1"
       inkscape:vp_z="1 : 0.5 : 1"
       inkscape:vp_y="0 : 1000 : 0"
       inkscape:vp_x="0 : 0.5 : 1"
       sodipodi:type="inkscape:persp3d" />
    <inkscape:perspective
       id="perspective3713"
       inkscape:persp3d-origin="0.5 : 0.33333333 : 1"
       inkscape:vp_z="1 : 0.5 : 1"
       inkscape:vp_y="0 : 1000 : 0"
       inkscape:vp_x="0 : 0.5 : 1"
       sodipodi:type="inkscape:persp3d" />
    <inkscape:perspective
       id="perspective3735"
       inkscape:persp3d-origin="0.5 : 0.33333333 : 1"
       inkscape:vp_z="1 : 0.5 : 1"
       inkscape:vp_y="0 : 1000 : 0"
       inkscape:vp_x="0 : 0.5 : 1"
       sodipodi:type="inkscape:persp3d" />
    <inkscape:perspective
       id="perspective3735-7"
       inkscape:persp3d-origin="0.5 : 0.33333333 : 1"
       inkscape:vp_z="1 : 0.5 : 1"
       inkscape:vp_y="0 : 1000 : 0"
       inkscape:vp_x="0 : 0.5 : 1"
       sodipodi:type="inkscape:persp3d" />
    <inkscape:perspective
       id="perspective3735-1"
       inkscape:persp3d-origin="0.5 : 0.33333333 : 1"
       inkscape:vp_z="1 : 0.5 : 1"
       inkscape:vp_y="0 : 1000 : 0"
       inkscape:vp_x="0 : 0.5 : 1"
       sodipodi:type="inkscape:persp3d" />
    <inkscape:perspective
       id="perspective3735-9"
       inkscape:persp3d-origin="0.5 : 0.33333333 : 1"
       inkscape:vp_z="1 : 0.5 : 1"
       inkscape:vp_y="0 : 1000 : 0"
       inkscape:vp_x="0 : 0.5 : 1"
       sodipodi:type="inkscape:persp3d" />
    <inkscape:perspective
       id="perspective3784"
       inkscape:persp3d-origin="0.5 : 0.33333333 : 1"
       inkscape:vp_z="1 : 0.5 : 1"
       inkscape:vp_y="0 : 1000 : 0"
       inkscape:vp_x="0 : 0.5 : 1"
       sodipodi:type="inkscape:persp3d" />
    <inkscape:perspective
       id="perspective3831"
       inkscape:persp3d-origin="0.5 : 0.33333333 : 1"
       inkscape:vp_z="1 : 0.5 : 1"
       inkscape:vp_y="0 : 1000 : 0"
       inkscape:vp_x="0 : 0.5 : 1"
       sodipodi:type="inkscape:persp3d" />
    <inkscape:perspective
       id="perspective3869"
       inkscape:persp3d-origin="0.5 : 0.33333333 : 1"
       inkscape:vp_z="1 : 0.5 : 1"
       inkscape:vp_y="0 : 1000 : 0"
       inkscape:vp_x="0 : 0.5 : 1"
       sodipodi:type="inkscape:persp3d" />
    <inkscape:perspective
       id="perspective3869-3"
       inkscape:persp3d-origin="0.5 : 0.33333333 : 1"
       inkscape:vp_z="1 : 0.5 : 1"
       inkscape:vp_y="0 : 1000 : 0"
       inkscape:vp_x="0 : 0.5 : 1"
       sodipodi:type="inkscape:persp3d" />
  </defs>
  <path
     style="color:#000000;font-style:normal;font-variant:normal;font-weight:normal;font-stretch:normal;font-size:medium;line-height:normal;font-family:Sans;-inkscape-font-specification:Sans;text-indent:0;text-align:start;text-decoration:none;text-decoration-line:none;letter-spacing:normal;word-spacing:normal;text-transform:none;direction:ltr;block-progression:tb;writing-mode:lr-tb;baseline-shift:baseline;text-anchor:start;display:inline;overflow:visible;visibility:visible;fill:#ce0000;fill-opacity:0.53892212;stroke:none;stroke-width:45;stroke-opacity:0.38323358;marker:none;enable-background:accumulate"
     d="m 1335.5941,521.3443 c -14.9137,0.38604 -29.1623,4.82115 -41.3437,12.625 -0.6891,0.44143 -1.4186,0.81776 -2.0938,1.28125 -33.9956,19.8086 -51.1783,68.92089 -24.9687,111.34375 a 22.50225,22.50225 0 0 0 0.6875,1 c 14.5193,20.89372 36.0237,31.18258 55.1875,33.03125 17.4293,1.68135 33.1003,-0.43519 50.375,-0.5625 l -0.031,39.4375 a 22.50225,22.50225 0 0 0 0,0.125 c -0,-0.35688 1.4826,0.28703 -0.9688,0.3125 l -207.875,0 c -10.8161,-0.66526 -20.6554,-12.9077 -20.5312,-16.9375 a 22.50225,22.50225 0 0 0 0,-1.09375 l -1.0938,-63.65625 -45,0.78125 1.0938,63.65625 0.031,0 c -0.4361,34.65886 28.9331,60.53296 63.5,62.21875 a 22.50225,22.50225 0 0 0 1.0937,0.0312 l 209,0 a 22.50225,22.50225 0 0 0 0.25,0 c 25.9628,-0.26977 45.5538,-22.06807 45.5,-45.40625 -10e-5,-0.0418 2e-4,-0.0832 0,-0.125 l 0.031,-39.43745 71.875,-0.0312 -0.031,-45 -71.8126,0.0312 0.031,-38.71875 a 22.50225,22.50225 0 0 0 -0.25,-3.28125 c -5.1715,-35.29201 -28.4362,-59.27566 -53.9375,-67.4375 -9.563,-3.06069 -19.2644,-4.43223 -28.7188,-4.1875 z m 6.0625,45.46875 c 3.0889,0.16033 6.1255,0.66251 8.9375,1.5625 11.0297,3.53013 19.6646,9.90443 22.9063,30 l -0.031,36.65625 c -20.4381,-0.008 -36.37,1.75052 -46.0938,0.8125 -10.5416,-1.01692 -14.0111,-1.79281 -22.25,-13.53125 -12.8564,-21.60882 -0.2339,-43.0075 10.375,-48.6875 a 22.50225,22.50225 0 0 0 2.125,-1.28125 c 5.0875,-3.49226 14.7647,-6.01224 24.0313,-5.53125 z"
     id="path5606"
     inkscape:connector-curvature="0" />
  <path
     style="color:#000000;font-style:normal;font-variant:normal;font-weight:normal;font-stretch:normal;font-size:medium;line-height:normal;font-family:Sans;-inkscape-font-specification:Sans;text-indent:0;text-align:start;text-decoration:none;text-decoration-line:none;letter-spacing:normal;word-spacing:normal;text-transform:none;direction:ltr;block-progression:tb;writing-mode:lr-tb;baseline-shift:baseline;text-anchor:start;display:inline;overflow:visible;visibility:visible;fill:#ee0000;fill-opacity:1;stroke:none;stroke-width:45;marker:none;enable-background:accumulate"
     d="m 1277.4691,438.50055 a 22.50225,22.50225 0 1 0 0,45 22.50225,22.50225 0 1 0 0,-45 z"
     id="path3965"
     inkscape:connector-curvature="0" />
  <path
     style="color:#000000;font-style:normal;font-variant:normal;font-weight:normal;font-stretch:normal;font-size:medium;line-height:normal;font-family:Sans;-inkscape-font-specification:Sans;text-indent:0;text-align:start;text-decoration:none;text-decoration-line:none;letter-spacing:normal;word-spacing:normal;text-transform:none;direction:ltr;block-progression:tb;writing-mode:lr-tb;baseline-shift:baseline;text-anchor:start;display:inline;overflow:visible;visibility:visible;fill:#000000;fill-opacity:1;stroke:none;stroke-width:45;marker:none;enable-background:accumulate"
     d="m -432.02334,647.91976 -45,0.84375 1.09375,57.6875 0.0625,0 c -0.19002,20.12314 10.8787,34.60229 23.46875,46.15625 12.83053,11.77465 28.70311,21.09016 48,22.03125 a 22.50225,22.50225 0 0 0 1.125,0.0312 l 163.90625,0 a 22.50225,22.50225 0 0 0 0.25,0 c 25.95,-0.26963 45.50318,-22.08107 45.46875,-45.40625 l 0.0312,0 c -8e-5,-0.0522 2.8e-4,-0.10402 0,-0.15625 l 0.0937,-80.53125 -45,-0.0625 -0.0937,80.6875 a 22.50225,22.50225 0 0 0 0,0.15625 c -0.002,-0.35688 1.48265,0.28703 -0.96875,0.3125 l -162.59375,0 c -3.61566,-0.17633 -13.12221,-4.10771 -19.78125,-10.21875 -6.65904,-6.11104 -8.935,-13.84534 -8.96875,-12.75 a 22.50225,22.50225 0 0 0 0,-1.125 l -1.0938,-57.65625 z"
     id="path5606-7"
     inkscape:connector-curvature="0" />
  <path
     style="color:#000000;font-style:normal;font-variant:normal;font-weight:normal;font-stretch:normal;font-size:medium;line-height:normal;font-family:Sans;-inkscape-font-specification:Sans;text-indent:0;text-align:start;text-decoration:none;text-decoration-line:none;letter-spacing:normal;word-spacing:normal;text-transform:none;direction:ltr;block-progression:tb;writing-mode:lr-tb;baseline-shift:baseline;text-anchor:start;display:inline;overflow:visible;visibility:visible;fill:#ee0000;fill-opacity:1;stroke:none;stroke-width:45;marker:none;enable-background:accumulate"
     d="m -295.71084,568.16976 a 22.50225,22.50225 0 1 0 0,45 22.50225,22.50225 0 1 0 0,-45 z"
     id="path3965-2"
     inkscape:connector-curvature="0" />
  <path
     style="color:#000000;font-style:normal;font-variant:normal;font-weight:normal;font-stretch:normal;font-size:medium;line-height:normal;font-family:Sans;-inkscape-font-specification:Sans;text-indent:0;text-align:start;text-decoration:none;text-decoration-line:none;letter-spacing:normal;word-spacing:normal;text-transform:none;direction:ltr;block-progression:tb;writing-mode:lr-tb;baseline-shift:baseline;text-anchor:start;display:inline;overflow:visible;visibility:visible;fill:#ee0000;fill-opacity:1;stroke:none;stroke-width:45;marker:none;enable-background:accumulate"
     d="m -334.14834,805.45101 a 22.50225,22.50225 0 1 0 0,45 22.50225,22.50225 0 1 0 0,-45 z"
     id="path3965-3"
     inkscape:connector-curvature="0" />
  <path
     style="color:#000000;font-style:normal;font-variant:normal;font-weight:normal;font-stretch:normal;font-size:medium;line-height:normal;font-family:Sans;-inkscape-font-specification:Sans;text-indent:0;text-align:start;text-decoration:none;text-decoration-line:none;letter-spacing:normal;word-spacing:normal;text-transform:none;direction:ltr;block-progression:tb;writing-mode:lr-tb;baseline-shift:baseline;text-anchor:start;display:inline;overflow:visible;visibility:visible;fill:#ee0000;fill-opacity:1;stroke:none;stroke-width:45;marker:none;enable-background:accumulate"
     d="m -373.02334,568.57601 a 22.50225,22.50225 0 1 0 0,45 22.50225,22.50225 0 1 0 0,-45 z"
     id="path3965-1"
     inkscape:connector-curvature="0" />
  <path
     style="color:#000000;font-style:normal;font-variant:normal;font-weight:normal;font-stretch:normal;font-size:medium;line-height:normal;font-family:Sans;-inkscape-font-specification:Sans;text-indent:0;text-align:start;text-decoration:none;text-decoration-line:none;letter-spacing:normal;word-spacing:normal;text-transform:none;direction:ltr;block-progression:tb;writing-mode:lr-tb;baseline-shift:baseline;text-anchor:start;display:inline;overflow:visible;visibility:visible;fill:#ee0000;fill-opacity:1;stroke:none;stroke-width:45;marker:none;enable-background:accumulate"
     d="m -335.27334,528.54476 a 22.50225,22.50225 0 1 0 0,45 22.50225,22.50225 0 1 0 0,-45 z"
     id="path3965-0"
     inkscape:connector-curvature="0" />
  <path
     style="color:#000000;font-style:normal;font-variant:normal;font-weight:normal;font-stretch:normal;font-size:medium;line-height:normal;font-family:Sans;-inkscape-font-specification:Sans;text-indent:0;text-align:start;text-decoration:none;text-decoration-line:none;letter-spacing:normal;word-spacing:normal;text-transform:none;direction:ltr;block-progression:tb;writing-mode:lr-tb;baseline-shift:baseline;text-anchor:start;display:inline;overflow:visible;visibility:visible;fill:#000000;fill-opacity:1;stroke:none;stroke-width:45;marker:none;enable-background:accumulate"
     d="m 1363.0643,43.291102 c -38.7134,13.86954 -88.7035,34.91805 -124.9916,66.497908 -4.0649,3.63874 -8.1571,7.65066 -10.7839,11.55808 l -1.0903,-77.841108 -44.9986,0.64292 -0.1676,238.241908 0,0.43749 0.031,-8e-5 c 0.027,10.8123 3.2038,22.40558 11.4845,31.5341 8.3639,9.22025 21.4145,14.19169 34.1914,14.10269 0.041,-2.9e-4 0.083,6e-5 0.125,-3.5e-4 l 124.5618,-0.36256 0.031,-7e-5 c 9.6667,-0.0424 19.0686,-2.21552 26.9187,-7.59808 7.8501,-5.38256 13.1184,-13.95951 14.9456,-21.94341 3.5224,-15.39103 -0.3078,-27.972 -11.5321,-38.0965 l 0.031,-0.0312 -109.0154,-106.82352 -1.253,-1.18441 -1.3775,-1.02782 c -4.3976,-3.15703 -5.2208,-5.19295 -5.4204,-5.67407 0.2232,-0.10549 0.1548,0.0647 0.9675,-0.50241 l 0.9671,-0.68989 0.9355,-0.81483 c 27.8325,-24.22178 74.3677,-45.062088 110.6371,-58.056038 l -15.199,-42.36867 z M 1228.0396,172.00159 c 35.3361,37.41138 74.9168,74.16402 112.6511,111.12703 -39.9135,0.1209 -80.5825,0.23536 -114.5619,0.3377 0.2958,-36.408 1.2396,-74.63995 1.9108,-111.46476 z"
     id="path3782"
     inkscape:connector-curvature="0"
     sodipodi:nodetypes="ccccccccsscccssccccccccccccccccc" />
  <path
     style="color:#000000;font-style:normal;font-variant:normal;font-weight:normal;font-stretch:normal;font-size:medium;line-height:normal;font-family:Sans;-inkscape-font-specification:Sans;text-indent:0;text-align:start;text-decoration:none;text-decoration-line:none;letter-spacing:normal;word-spacing:normal;text-transform:none;direction:ltr;block-progression:tb;writing-mode:lr-tb;baseline-shift:baseline;text-anchor:start;display:inline;overflow:visible;visibility:visible;fill:#000000;fill-opacity:1;stroke:none;stroke-width:45;marker:none;enable-background:accumulate"
     d="m 293.09969,1098.6771 0.25,45 c 21.45214,-0.121 52.481,0.4901 75.09375,10.0313 22.41471,9.4577 37.64747,22.5573 37.9375,63.1875 l -191.4375,-0.062 0,45 194.4375,0.062 0,-0.062 c 10.04857,0.2022 21.99246,-2.8625 30.4375,-11.5625 8.67455,-8.9365 11.64071,-20.9759 11.625,-32.4062 -0.0327,-55.778 -31.04226,-91.0728 -65.53125,-105.625 -34.48899,-14.5523 -71.2903,-13.684 -92.8125,-13.5626 z"
     id="path3819"
     inkscape:connector-curvature="0" />
  <path
     style="color:#000000;font-style:normal;font-variant:normal;font-weight:normal;font-stretch:normal;font-size:medium;line-height:normal;font-family:Sans;-inkscape-font-specification:Sans;text-indent:0;text-align:start;text-decoration:none;text-decoration-line:none;letter-spacing:normal;word-spacing:normal;text-transform:none;direction:ltr;block-progression:tb;writing-mode:lr-tb;baseline-shift:baseline;text-anchor:start;display:inline;overflow:visible;visibility:visible;fill:#000000;fill-opacity:1;stroke:none;stroke-width:45;marker:none;enable-background:accumulate"
     d="m 309.06844,1138.3021 c -14.64049,0.2362 -29.42806,4.9294 -41.34375,15.25 -11.81903,10.237 -19.78305,26.7704 -19.5625,44.875 0.002,0.1481 -0.0342,0.2893 -0.0312,0.4376 l 0,40.5312 45,0 0,-40.9688 0,-0.2187 0,-0.2187 c -0.12068,-6.1654 1.37615,-8.1066 4.03125,-10.4063 2.6551,-2.2997 7.50221,-4.1986 12.625,-4.2813 5.12279,-0.083 9.90898,1.6132 12.6875,3.9063 2.77852,2.2931 4.65288,4.6152 4.8125,11.7187 l -0.0312,39.4376 45,0.062 0.0312,-39.9687 0,-0.2813 0,-0.25 c -0.41829,-18.6152 -8.83579,-35.2695 -21.15625,-45.4374 -12.32046,-10.168 -27.42201,-14.4237 -42.0625,-14.1876 z"
     id="path3821"
     inkscape:connector-curvature="0" />
  <path
     style="font-size:medium;font-style:normal;font-variant:normal;font-weight:normal;font-stretch:normal;text-indent:0;text-align:start;text-decoration:none;line-height:normal;letter-spacing:normal;word-spacing:normal;text-transform:none;direction:ltr;block-progression:tb;writing-mode:lr-tb;text-anchor:start;baseline-shift:baseline;color:#000000;fill:#000000;fill-opacity:1;stroke:none;stroke-width:45;marker:none;visibility:visible;display:inline;overflow:visible;enable-background:accumulate;font-family:Sans;-inkscape-font-specification:Sans"
     d="m 171.9375,1146.7812 -194.84375,1 0.21875,45 194.84375,-1 -0.21875,-45 z"
     id="path3848"
     inkscape:connector-curvature="0" />
  <path
     style="font-size:medium;font-style:normal;font-variant:normal;font-weight:normal;font-stretch:normal;text-indent:0;text-align:start;text-decoration:none;line-height:normal;letter-spacing:normal;word-spacing:normal;text-transform:none;direction:ltr;block-progression:tb;writing-mode:lr-tb;text-anchor:start;baseline-shift:baseline;color:#000000;fill:#000000;fill-opacity:1;stroke:none;stroke-width:45;marker:none;visibility:visible;display:inline;overflow:visible;enable-background:accumulate;font-family:Sans;-inkscape-font-specification:Sans"
     d="m 75.375,1067.8438 c -14.640489,0.2361 -29.428063,4.9293 -41.34375,15.25 -11.81947,10.2373 -19.752423,26.7695 -19.53125,44.875 0.0018,0.1473 -0.03414,0.2899 -0.03125,0.4374 l 0,40.5 45,0 0,-40.9374 0,-0.2188 0,-0.2188 c -0.120684,-6.1654 1.376148,-8.1378 4.03125,-10.4374 2.655102,-2.2997 7.470966,-4.1674 12.59375,-4.25 5.122784,-0.083 9.940229,1.6131 12.71875,3.9062 2.778521,2.2931 4.652882,4.6152 4.8125,11.7188 l -0.0625,39.4374 45,0.063 0.0625,-40 0,-0.25 -0.0312,-0.2813 c -0.41829,-18.6153 -8.83579,-35.2383 -21.15625,-45.4063 -12.32046,-10.1679 -27.422011,-14.4236 -42.0625,-14.1874 z"
     id="path3821-1"
     inkscape:connector-curvature="0" />
  <path
     style="font-size:medium;font-style:normal;font-variant:normal;font-weight:normal;font-stretch:normal;text-indent:0;text-align:start;text-decoration:none;line-height:normal;letter-spacing:normal;word-spacing:normal;text-transform:none;direction:ltr;block-progression:tb;writing-mode:lr-tb;text-anchor:start;baseline-shift:baseline;color:#000000;fill:#000000;fill-opacity:1;stroke:none;stroke-width:45;marker:none;visibility:visible;display:inline;overflow:visible;enable-background:accumulate;font-family:Sans;-inkscape-font-specification:Sans"
     d="m 93.625,1170.3125 0,40.9687 0,0.2188 0,0.2188 c 0.120677,6.1653 -1.376136,8.1065 -4.03125,10.4062 -2.655114,2.2997 -7.502206,4.1986 -12.625,4.2812 -5.122794,0.083 -9.908978,-1.6131 -12.6875,-3.9062 -2.778522,-2.2931 -4.652883,-4.6152 -4.8125,-11.7188 l 0.03125,-39.4374 -45,-0.063 -0.03125,39.9688 0,0.2812 0,0.25 c 0.418283,18.6153 8.835789,35.2696 21.15625,45.4376 12.320461,10.1679 27.422008,14.4236 42.0625,14.1874 14.640492,-0.2361 29.42806,-4.9293 41.34375,-15.25 11.81903,-10.2369 19.78303,-26.7703 19.5625,-44.875 -0.002,-0.148 0.0342,-0.2892 0.0312,-0.4374 l 0,-40.5313 -45,0 z"
     id="path3821-4"
     inkscape:connector-curvature="0" />
  <path
     style="opacity:1;fill:#f2f2f2;fill-rule:evenodd;stroke:#0000f7;stroke-width:45;stroke-linecap:butt;stroke-linejoin:round;stroke-miterlimit:4;stroke-dasharray:none;stroke-opacity:1"
     d="M 213.81675,28.018844 C 173.27007,41.905994 96.535998,71.557044 60.842728,108.53081 L 195.31813,247.02616 c 9.26704,9.26704 1.57228,22.52859 -12.78416,22.52859 l -129.816302,0 c -12.36332,-0.0834 -20.77746,-10.96584 -20.68197,-22.89791 L 32.774338,6.9675541"
     id="path4159"
     inkscape:connector-curvature="0"
     sodipodi:nodetypes="ccccccc" />
  <path
     d="m 624.54061,128.50111 7.6e-4,64.18164 c 0,24.49945 17.86407,40.14575 42.13418,40.14575 l 208.81542,-0.44619 c 14.22867,-0.14699 23.28096,-11.41681 23.22344,-22.92948 l 0.0927,-120.757676 c 0,-54.18992 -60.59443,-64.91328 -91.0312,-45.18275 -20.99187,13.60791 -35.61467,48.734638 -18.61556,76.725926 20.10136,33.09958 49.64995,27.04986 92.67009,27.20012 l 111.28272,0.38869"
     style="fill:none;stroke:#0606ff;stroke-width:45.00004959;stroke-linecap:butt;stroke-linejoin:round;stroke-miterlimit:4;stroke-dasharray:none;stroke-opacity:1"
     id="path30"
     inkscape:connector-curvature="0"
     sodipodi:nodetypes="ccccccsssc" />
  <path
     style="fill:none;fill-rule:evenodd;stroke:#0000ff;stroke-width:45;stroke-linecap:butt;stroke-linejoin:miter;stroke-miterlimit:4;stroke-dasharray:none;stroke-opacity:1"
     d="m 917.42103,332.84109 0,82.78121 c 0,11.00326 -11.49931,22.14956 -22.14957,22.14956 l -166.23362,0 c -26.88356,0 -50.1162,-19.82072 -50.1162,-45.4178 l 0,-59.51297"
     id="path4167"
     inkscape:connector-curvature="0"
     sodipodi:nodetypes="cccscc" />
  <path
     style="fill:none;fill-rule:evenodd;stroke:#0000ff;stroke-width:45;stroke-linecap:butt;stroke-linejoin:round;stroke-miterlimit:4;stroke-dasharray:none;stroke-opacity:1"
     d="m 800.07276,569.96074 c 86.94309,12.34178 157.77855,80.82066 157.77855,159.96708 0,12.84097 -9.61979,21.93383 -21.95625,21.93383 l -243.63379,0"
     id="path4169"
     inkscape:connector-curvature="0"
     sodipodi:nodetypes="cccc" />
  <circle
     style="opacity:1;fill:none;fill-opacity:0.53892212;fill-rule:nonzero;stroke:#0000ff;stroke-width:37.3575592;stroke-linecap:butt;stroke-linejoin:round;stroke-miterlimit:4;stroke-dasharray:none;stroke-dashoffset:0;stroke-opacity:1"
     id="path4194"
     cx="808.49976"
     cy="695.5246"
     r="52.057774" />
  <path
     style="fill:none;fill-rule:evenodd;stroke:#0000ff;stroke-width:45;stroke-linecap:butt;stroke-linejoin:round;stroke-miterlimit:4;stroke-dasharray:none;stroke-opacity:1"
     d="m 468.74899,607.20793 c 104.97201,0 146.52178,51.67824 145.77855,124.1356 0,12.841 -9.61979,21.9338 -21.95625,21.9338 l -233.63379,0"
     id="path4169-4"
     inkscape:connector-curvature="0"
     sodipodi:nodetypes="cccc" />
  <circle
     style="opacity:1;fill:none;fill-opacity:0.53892212;fill-rule:nonzero;stroke:#0000ff;stroke-width:37.3575592;stroke-linecap:butt;stroke-linejoin:round;stroke-miterlimit:4;stroke-dasharray:none;stroke-dashoffset:0;stroke-opacity:1"
     id="path4194-0"
     cx="475.17599"
     cy="696.94037"
     r="52.057774" />
  <path
     style="fill:none;fill-rule:evenodd;stroke:#000000;stroke-width:45;stroke-linecap:butt;stroke-linejoin:round;stroke-miterlimit:4;stroke-dasharray:none;stroke-opacity:1"
     d="m 134.5675,607.55279 c 109.79655,1.69278 157.44725,55.09333 155.8336,119.593 0,12.841 -9.6198,22.3489 -21.9563,22.3489 l -239.688805,0"
     id="path4169-4-9"
     inkscape:connector-curvature="0"
     sodipodi:nodetypes="cccc" />
  <path
     style="fill:none;fill-rule:evenodd;stroke:#000000;stroke-width:45;stroke-linecap:butt;stroke-linejoin:miter;stroke-miterlimit:4;stroke-dasharray:none;stroke-opacity:1"
     d="m 101.68872,728.12299 0,-41.0432 c 4.72292,-45.9304 59.83452,-54.9885 92.77104,-4.2737 26.53157,40.8526 -0.88187,66.3085 -28.76069,66.5345"
     id="path4243"
     inkscape:connector-curvature="0"
     sodipodi:nodetypes="ccsc" />
  <path
     style="fill:none;fill-rule:evenodd;stroke:#000000;stroke-width:45;stroke-linecap:butt;stroke-linejoin:round;stroke-miterlimit:4;stroke-dasharray:none;stroke-opacity:1"
     d="m 322.5605,311.35264 c 109.79654,1.69278 157.44724,81.09333 155.83359,145.593 0,12.841 -9.6198,22.3489 -21.9563,22.3489 l -239.6888,0"
     id="path4169-4-9-8"
     inkscape:connector-curvature="0"
     sodipodi:nodetypes="cccc" />
  <path
     style="fill:none;fill-rule:evenodd;stroke:#000000;stroke-width:45;stroke-linecap:butt;stroke-linejoin:miter;stroke-miterlimit:4;stroke-dasharray:none;stroke-opacity:1"
     d="m 289.68172,457.92284 0,-41.0432 c 4.72292,-45.9304 59.83451,-54.9885 92.77104,-4.2737 26.53157,40.8526 -0.88187,66.3085 -28.76069,66.5345"
     id="path4243-6"
     inkscape:connector-curvature="0"
     sodipodi:nodetypes="ccsc" />
</svg>
