<?xml version="1.0" encoding="UTF-8" standalone="no"?>
<!-- Created with Inkscape (http://www.inkscape.org/) -->

<svg
   xmlns:dc="http://purl.org/dc/elements/1.1/"
   xmlns:cc="http://creativecommons.org/ns#"
   xmlns:rdf="http://www.w3.org/1999/02/22-rdf-syntax-ns#"
   xmlns:svg="http://www.w3.org/2000/svg"
   xmlns="http://www.w3.org/2000/svg"
   xmlns:sodipodi="http://sodipodi.sourceforge.net/DTD/sodipodi-0.dtd"
   xmlns:inkscape="http://www.inkscape.org/namespaces/inkscape"
   version="1.0"
   width="1000"
   height="1000"
   id="svg5496"
   sodipodi:version="0.32"
   inkscape:version="0.91 r13725"
   sodipodi:docname="mada.svg"
   inkscape:output_extension="org.inkscape.output.svg.inkscape">
  <metadata
     id="metadata5594">
    <rdf:RDF>
      <cc:Work
         rdf:about="">
        <dc:format>image/svg+xml</dc:format>
        <dc:type
           rdf:resource="http://purl.org/dc/dcmitype/StillImage" />
        <dc:title />
      </cc:Work>
    </rdf:RDF>
  </metadata>
  <sodipodi:namedview
     inkscape:window-height="704"
     inkscape:window-width="1366"
     inkscape:pageshadow="2"
     inkscape:pageopacity="0.0"
     borderopacity="1.0"
     bordercolor="#666666"
     pagecolor="#ffffff"
     id="base"
     showgrid="false"
     showguides="true"
     inkscape:guide-bbox="true"
     inkscape:zoom="0.7752966"
     inkscape:cx="-6894.8947"
     inkscape:cy="116.74067"
     inkscape:window-x="0"
     inkscape:window-y="27"
     inkscape:current-layer="svg5496"
     inkscape:window-maximized="1">
    <sodipodi:guide
       orientation="horizontal"
       position="200"
       id="guide5596" />
  </sodipodi:namedview>
  <defs
     id="defs5498">
    <inkscape:perspective
       sodipodi:type="inkscape:persp3d"
       inkscape:vp_x="0 : 500 : 1"
       inkscape:vp_y="0 : 1000 : 0"
       inkscape:vp_z="1000 : 500 : 1"
       inkscape:persp3d-origin="500 : 333.33333 : 1"
       id="perspective2873" />
    <inkscape:perspective
       id="perspective2883"
       inkscape:persp3d-origin="0.5 : 0.33333333 : 1"
       inkscape:vp_z="1 : 0.5 : 1"
       inkscape:vp_y="0 : 1000 : 0"
       inkscape:vp_x="0 : 0.5 : 1"
       sodipodi:type="inkscape:persp3d" />
    <inkscape:perspective
       id="perspective2897"
       inkscape:persp3d-origin="0.5 : 0.33333333 : 1"
       inkscape:vp_z="1 : 0.5 : 1"
       inkscape:vp_y="0 : 1000 : 0"
       inkscape:vp_x="0 : 0.5 : 1"
       sodipodi:type="inkscape:persp3d" />
    <inkscape:perspective
       id="perspective2919"
       inkscape:persp3d-origin="0.5 : 0.33333333 : 1"
       inkscape:vp_z="1 : 0.5 : 1"
       inkscape:vp_y="0 : 1000 : 0"
       inkscape:vp_x="0 : 0.5 : 1"
       sodipodi:type="inkscape:persp3d" />
    <inkscape:perspective
       id="perspective3713"
       inkscape:persp3d-origin="0.5 : 0.33333333 : 1"
       inkscape:vp_z="1 : 0.5 : 1"
       inkscape:vp_y="0 : 1000 : 0"
       inkscape:vp_x="0 : 0.5 : 1"
       sodipodi:type="inkscape:persp3d" />
    <inkscape:perspective
       id="perspective3735"
       inkscape:persp3d-origin="0.5 : 0.33333333 : 1"
       inkscape:vp_z="1 : 0.5 : 1"
       inkscape:vp_y="0 : 1000 : 0"
       inkscape:vp_x="0 : 0.5 : 1"
       sodipodi:type="inkscape:persp3d" />
    <inkscape:perspective
       id="perspective3735-7"
       inkscape:persp3d-origin="0.5 : 0.33333333 : 1"
       inkscape:vp_z="1 : 0.5 : 1"
       inkscape:vp_y="0 : 1000 : 0"
       inkscape:vp_x="0 : 0.5 : 1"
       sodipodi:type="inkscape:persp3d" />
    <inkscape:perspective
       id="perspective3735-1"
       inkscape:persp3d-origin="0.5 : 0.33333333 : 1"
       inkscape:vp_z="1 : 0.5 : 1"
       inkscape:vp_y="0 : 1000 : 0"
       inkscape:vp_x="0 : 0.5 : 1"
       sodipodi:type="inkscape:persp3d" />
    <inkscape:perspective
       id="perspective3735-9"
       inkscape:persp3d-origin="0.5 : 0.33333333 : 1"
       inkscape:vp_z="1 : 0.5 : 1"
       inkscape:vp_y="0 : 1000 : 0"
       inkscape:vp_x="0 : 0.5 : 1"
       sodipodi:type="inkscape:persp3d" />
    <inkscape:perspective
       id="perspective3784"
       inkscape:persp3d-origin="0.5 : 0.33333333 : 1"
       inkscape:vp_z="1 : 0.5 : 1"
       inkscape:vp_y="0 : 1000 : 0"
       inkscape:vp_x="0 : 0.5 : 1"
       sodipodi:type="inkscape:persp3d" />
    <inkscape:perspective
       id="perspective3831"
       inkscape:persp3d-origin="0.5 : 0.33333333 : 1"
       inkscape:vp_z="1 : 0.5 : 1"
       inkscape:vp_y="0 : 1000 : 0"
       inkscape:vp_x="0 : 0.5 : 1"
       sodipodi:type="inkscape:persp3d" />
    <inkscape:perspective
       id="perspective3869"
       inkscape:persp3d-origin="0.5 : 0.33333333 : 1"
       inkscape:vp_z="1 : 0.5 : 1"
       inkscape:vp_y="0 : 1000 : 0"
       inkscape:vp_x="0 : 0.5 : 1"
       sodipodi:type="inkscape:persp3d" />
    <inkscape:perspective
       id="perspective3869-3"
       inkscape:persp3d-origin="0.5 : 0.33333333 : 1"
       inkscape:vp_z="1 : 0.5 : 1"
       inkscape:vp_y="0 : 1000 : 0"
       inkscape:vp_x="0 : 0.5 : 1"
       sodipodi:type="inkscape:persp3d" />
  </defs>
  <path
     style="opacity:1;fill:none;fill-rule:evenodd;stroke:#0000ff;stroke-width:105.97499847;stroke-linecap:butt;stroke-linejoin:round;stroke-miterlimit:4;stroke-dasharray:none;stroke-opacity:0.50196078"
     d="m 21441.051,178.84382 c -95.488,32.7043 -276.197,102.5325 -360.254,189.6057 l 316.689,326.1566 c 21.824,21.8238 3.703,53.0548 -30.106,53.0548 l -305.718,0 c -29.115,-0.1964 -48.931,-25.8246 -48.706,-53.9246 l 1.74,-564.4683"
     id="path4159"
     inkscape:connector-curvature="0"
     sodipodi:nodetypes="ccccccc" />
  <path
     d="m 13699.293,701.46432 0,151.1477 c 0,57.6962 42.07,94.5433 99.226,94.5433 l 491.761,-0.0761 c 33.508,-0.3462 54.826,-26.8866 54.691,-53.9989 l 0.218,-284.3844 c 0,-127.6172 -142.7,-152.8707 -214.378,-106.4053 -49.436,32.0466 -83.873,114.77 -43.84,180.6895 47.339,77.9495 116.926,63.7024 218.238,64.0563 l 262.071,0.9154"
     style="fill:none;stroke:#0000ff;stroke-width:105.97512054;stroke-linecap:butt;stroke-linejoin:round;stroke-miterlimit:4;stroke-dasharray:none;stroke-opacity:0.50196078"
     id="path30"
     inkscape:connector-curvature="0"
     sodipodi:nodetypes="ccccccsssc" />
  <path
     style="fill:none;fill-rule:evenodd;stroke:#0000ff;stroke-width:105.97499847;stroke-linecap:butt;stroke-linejoin:miter;stroke-miterlimit:4;stroke-dasharray:none;stroke-opacity:0.50196078"
     d="m 22256.402,499.95071 0,194.9498 c 0,25.9126 -27.08,52.1622 -52.162,52.1622 l -391.48,0 c -63.311,0 -118.024,-46.6778 -118.024,-106.9589 l 0,-140.1531"
     id="path4167"
     inkscape:connector-curvature="0"
     sodipodi:nodetypes="cccscc" />
  <g
     id="g5071"
     transform="translate(0,-6)">
    <path
       sodipodi:nodetypes="cccc"
       inkscape:connector-curvature="0"
       id="path4169"
       d="m 6689.4408,324.43971 c 204.7509,29.0649 371.5685,190.3326 371.5685,376.7225 0,30.2404 -22.6547,51.6541 -51.707,51.6541 l -573.7576,0"
       style="fill:none;fill-rule:evenodd;stroke:#0000ff;stroke-width:105.97499847;stroke-linecap:butt;stroke-linejoin:round;stroke-miterlimit:4;stroke-dasharray:none;stroke-opacity:0.50196078" />
    <circle
       r="122.59605"
       cy="620.14258"
       cx="6709.2866"
       id="path4194"
       style="opacity:1;fill:none;fill-opacity:0.53892212;fill-rule:nonzero;stroke:#0000ff;stroke-width:87.97705078;stroke-linecap:butt;stroke-linejoin:round;stroke-miterlimit:4;stroke-dasharray:none;stroke-dashoffset:0;stroke-opacity:0.50196078" />
  </g>
  <g
     id="g5067"
     transform="translate(0,-9.1931613)">
    <path
       sodipodi:nodetypes="cccc"
       inkscape:connector-curvature="0"
       id="path4169-4"
       d="m 5909.1733,412.15681 c 247.2091,0 345.0588,121.7023 343.3085,292.3394 0,30.2405 -22.6546,51.6541 -51.707,51.6541 l -550.2076,0"
       style="fill:none;fill-rule:evenodd;stroke:#0000ff;stroke-width:105.97499847;stroke-linecap:butt;stroke-linejoin:round;stroke-miterlimit:4;stroke-dasharray:none;stroke-opacity:0.50196078" />
    <circle
       r="122.59605"
       cy="623.47668"
       cx="5924.3091"
       id="path4194-0"
       style="opacity:1;fill:none;fill-opacity:0.53892212;fill-rule:nonzero;stroke:#0000ff;stroke-width:87.97705078;stroke-linecap:butt;stroke-linejoin:round;stroke-miterlimit:4;stroke-dasharray:none;stroke-dashoffset:0;stroke-opacity:0.50196078" />
  </g>
  <g
     id="g5063">
    <path
       sodipodi:nodetypes="cccc"
       inkscape:connector-curvature="0"
       id="path4169-4-9"
       d="m 5122.1759,412.96901 c 258.5709,3.9865 370.7883,129.7448 366.9881,281.6415 0,30.2405 -22.6546,52.6316 -51.7071,52.6316 l -564.4671,0"
       style="fill:none;fill-rule:evenodd;stroke:#0000ff;stroke-width:105.97499847;stroke-linecap:butt;stroke-linejoin:round;stroke-miterlimit:4;stroke-dasharray:none;stroke-opacity:0.50196078" />
    <path
       sodipodi:nodetypes="ccsc"
       inkscape:connector-curvature="0"
       id="path4243"
       d="m 5044.7464,696.91181 0,-96.6567 c 11.1224,-108.1661 140.9103,-129.498 218.4758,-10.0646 62.4818,96.2079 -2.0768,156.1565 -67.7315,156.6887"
       style="fill:none;fill-rule:evenodd;stroke:#0000ff;stroke-width:105.97499847;stroke-linecap:butt;stroke-linejoin:miter;stroke-miterlimit:4;stroke-dasharray:none;stroke-opacity:0.50196078" />
  </g>
  <g
     id="g5080"
     transform="translate(6326.4119,2313.6335)">
    <path
       sodipodi:nodetypes="cccc"
       inkscape:connector-curvature="0"
       id="path4169-4-9-8"
       d="m 1175.3061,-1961.7798 c 258.5708,3.9865 370.7882,190.9748 366.9881,342.8715 0,30.2406 -22.6546,52.6317 -51.7071,52.6317 l -564.46711,0"
       style="fill:none;fill-rule:evenodd;stroke:#0000ff;stroke-width:105.97499847;stroke-linecap:butt;stroke-linejoin:round;stroke-miterlimit:4;stroke-dasharray:none;stroke-opacity:0.50196078" />
    <path
       sodipodi:nodetypes="ccsc"
       inkscape:connector-curvature="0"
       id="path4243-6"
       d="m 1097.8766,-1616.607 0,-96.6567 c 11.1224,-108.1661 140.9102,-129.4979 218.4758,-10.0646 62.4818,96.2079 -2.0768,156.1565 -67.7315,156.6888"
       style="fill:none;fill-rule:evenodd;stroke:#0000ff;stroke-width:105.97499847;stroke-linecap:butt;stroke-linejoin:miter;stroke-miterlimit:4;stroke-dasharray:none;stroke-opacity:0.50196078" />
  </g>
  <g
     id="g5104"
     transform="translate(0,-28.884557)">
    <path
       d="m 20620.256,453.11218 0.02,272.0715 c 0,29.2418 -22.364,51.7564 -53.141,51.7564 l -82.262,0"
       style="fill:none;stroke:#0000ff;stroke-width:105.97512054;stroke-linecap:butt;stroke-linejoin:round;stroke-miterlimit:4;stroke-dasharray:none;stroke-opacity:0.50196078"
       id="path14"
       inkscape:connector-curvature="0" />
    <path
       d="m 20436.978,453.25518 0,272.0639 c 0,29.2419 -22.364,51.7565 -53.118,51.7565 l -82.263,0"
       style="fill:none;stroke:#0000ff;stroke-width:105.97512054;stroke-linecap:butt;stroke-linejoin:round;stroke-miterlimit:4;stroke-dasharray:none;stroke-opacity:0.50196078"
       id="path16"
       inkscape:connector-curvature="0" />
    <path
       d="m 20253.882,451.19338 0,474.5899 c 0,29.2569 -22.364,51.9446 -53.126,51.7565 l -267.037,-0.49496 c -27.351,0.2772 -48.724,-27.4429 -48.724,-56.0758 l 0.253,-278.3321"
       style="fill:none;stroke:#0000ff;stroke-width:105.97512054;stroke-linecap:butt;stroke-linejoin:round;stroke-miterlimit:4;stroke-dasharray:none;stroke-opacity:0.50196078"
       id="path18"
       inkscape:connector-curvature="0"
       sodipodi:nodetypes="cscccc" />
  </g>
  <g
     id="g5100"
     transform="translate(0,-28.884557)">
    <path
       d="m 19104.81,759.70048 c 104.152,-143.5757 204.241,-292.9456 320.163,-250.0459 49.657,20.5957 74.602,66.0538 76.205,148.053 l 2.814,67.1901 c 1.219,29.2193 -22.356,51.7565 -53.133,51.7565 l -541.502,0"
       style="fill:none;stroke:#0000ff;stroke-width:105.97512054;stroke-linecap:butt;stroke-linejoin:round;stroke-miterlimit:4;stroke-dasharray:none;stroke-opacity:0.50196078"
       id="path20"
       inkscape:connector-curvature="0" />
    <path
       d="m 19048.23,551.82428 -0.301,179.3944"
       style="fill:none;stroke:#0000ff;stroke-width:105.97512054;stroke-linecap:butt;stroke-linejoin:miter;stroke-miterlimit:4;stroke-dasharray:none;stroke-opacity:0.50196078"
       id="path22"
       inkscape:connector-curvature="0" />
  </g>
  <g
     id="g5096"
     transform="translate(0,-28.884557)">
    <path
       d="m 18177.189,759.77578 c 104.16,-143.5833 204.242,-292.9531 320.171,-250.0535 49.649,20.5957 74.602,66.0539 76.205,148.053 l 2.814,67.1901 c 1.219,29.2193 -22.364,51.7565 -53.141,51.7565 l -401.862,0"
       style="fill:none;stroke:#0000ff;stroke-width:105.97512054;stroke-linecap:butt;stroke-linejoin:round;stroke-miterlimit:4;stroke-dasharray:none;stroke-opacity:0.50196078"
       id="path24"
       inkscape:connector-curvature="0" />
    <path
       d="m 18121.354,551.98228 0,363.4843 c 0,29.2569 -22.372,51.9446 -53.126,51.7565 l -267.045,-1.6028 c -28.461,0 -48.724,-26.6942 -48.724,-56.0833 l -0.862,-278.3397"
       style="fill:none;stroke:#0000ff;stroke-width:105.97512054;stroke-linecap:butt;stroke-linejoin:round;stroke-miterlimit:4;stroke-dasharray:none;stroke-opacity:0.50196078"
       id="path26"
       inkscape:connector-curvature="0"
       sodipodi:nodetypes="cscccc" />
  </g>
  <path
     sodipodi:nodetypes="cccccc"
     inkscape:connector-curvature="0"
     id="path28"
     style="fill:none;stroke:#0000ff;stroke-width:105.97512054;stroke-linecap:butt;stroke-linejoin:miter;stroke-miterlimit:4;stroke-dasharray:none;stroke-opacity:0.50196078"
     d="m 16161.779,747.2708 462.204,-0.2259 c 60.553,-0.1128 53.683,-66.5204 34.803,-82.5259 l -279.68,-285.1723 c -34.607,-30.7996 -29.041,-76.2769 -2.746,-90.7883 98.674,-60.9219 306.448,-107.6101 343.867,-108.2085" />
  <path
     inkscape:connector-curvature="0"
     id="path32"
     style="fill:none;stroke:#0000ff;stroke-width:105.97512054;stroke-linecap:butt;stroke-linejoin:miter;stroke-miterlimit:4;stroke-dasharray:none;stroke-opacity:0.50196078"
     d="m 17338.52,1038.5354 -240.361,-0.1128 c -48.942,0.8428 -84.708,-34.4265 -84.671,-80.05026 l -0.143,-115.3271 c -0.05,-45.7967 40.506,-95.6193 91.849,-95.5666 l 245.802,0 c 6.366,0.1731 22.537,-10.4973 23.824,-16.6527 1.535,-8.4505 3.807,0.1429 3.062,-13.876 -41.454,-0.158 -76.746,-32.1616 -106.982,-65.3916 -38.873,-42.7567 -83.353,-118.7058 -194.226,-161.1615" />
  <path
     inkscape:connector-curvature="0"
     id="path34"
     style="fill:none;stroke:#0000ff;stroke-width:105.97512054;stroke-linecap:butt;stroke-linejoin:miter;stroke-miterlimit:4;stroke-dasharray:none;stroke-opacity:0.50196078"
     d="m 15511.542,747.42076 482.303,0 c 6.374,0.1731 22.537,-10.4973 23.824,-16.6377 1.543,-8.4505 3.823,-8.1871 3.07,-22.2135 -41.462,-0.1656 -77.928,-27.8875 -110.503,-57.0616 -42.501,-38.0536 -89.133,-91.4957 -141.243,-128.1947 -55.158,-38.8362 -109.744,-51.9145 -151.079,-62.314" />
  <g
     id="g5092"
     transform="translate(0,-29.631018)">
    <path
       d="m 15245.105,1049.8393 -288.475,-0.1203 c -23.645,0.2917 -42.144,-19.9201 -42.293,-47.076 l -0.139,-177.01652 c 1.194,-26.3899 14.121,-48.4079 44.741,-48.4681 l 286.201,-0.3146"
       style="fill:none;stroke:#0000ff;stroke-width:105.97512054;stroke-linecap:butt;stroke-linejoin:miter;stroke-miterlimit:4;stroke-dasharray:none;stroke-opacity:0.50196078"
       id="path36"
       inkscape:connector-curvature="0"
       sodipodi:nodetypes="cccccc" />
    <path
       d="m 15205.905,574.76028 c -16.743,-7.2014 -32.863,-12.9429 -48.204,-17.3074 -156.042,-44.2315 -232.326,55.2105 -81.057,218.8401"
       style="fill:none;stroke:#0000ff;stroke-width:105.97512054;stroke-linecap:butt;stroke-linejoin:round;stroke-miterlimit:4;stroke-dasharray:none;stroke-opacity:0.50196078"
       id="path38"
       inkscape:connector-curvature="0" />
  </g>
  <path
     inkscape:connector-curvature="0"
     id="path44"
     style="fill:none;stroke:#0000ff;stroke-width:105.97512054;stroke-linecap:round;stroke-linejoin:miter;stroke-miterlimit:4;stroke-dasharray:none;stroke-opacity:0.50196078"
     d="m 15010.028,377.50677 0,0" />
  <path
     inkscape:connector-curvature="0"
     id="path46"
     style="fill:none;stroke:#0000ff;stroke-width:105.97512054;stroke-linecap:round;stroke-linejoin:miter;stroke-miterlimit:4;stroke-dasharray:none;stroke-opacity:0.50196078"
     d="m 15936.799,382.17556 0,0" />
  <path
     inkscape:connector-curvature="0"
     id="path48"
     style="fill:none;stroke:#0000ff;stroke-width:105.97512054;stroke-linecap:round;stroke-linejoin:miter;stroke-miterlimit:4;stroke-dasharray:none;stroke-opacity:0.50196078"
     d="m 15839.908,939.87836 0,0" />
  <path
     inkscape:connector-curvature="0"
     id="path50"
     style="fill:none;stroke:#0000ff;stroke-width:105.97512054;stroke-linecap:round;stroke-linejoin:miter;stroke-miterlimit:4;stroke-dasharray:none;stroke-opacity:0.50196078"
     d="m 17199.633,894.92954 0,0" />
  <path
     inkscape:connector-curvature="0"
     id="path52"
     style="fill:none;stroke:#0000ff;stroke-width:105.97512054;stroke-linecap:round;stroke-linejoin:miter;stroke-miterlimit:4;stroke-dasharray:none;stroke-opacity:0.50196078"
     d="m 17280.142,468.55944 0,0" />
  <path
     inkscape:connector-curvature="0"
     id="path54"
     style="fill:none;stroke:#0000ff;stroke-width:105.97512054;stroke-linecap:round;stroke-linejoin:miter;stroke-miterlimit:4;stroke-dasharray:none;stroke-opacity:0.50196078"
     d="m 18212.541,413.02688 0.01,0" />
  <path
     inkscape:connector-curvature="0"
     id="path56"
     style="fill:none;stroke:#0000ff;stroke-width:108.12423706;stroke-linecap:round;stroke-linejoin:miter;stroke-miterlimit:4;stroke-dasharray:none;stroke-opacity:0.50196078"
     d="m 19140.485,410.85218 0,0" />
  <path
     inkscape:connector-curvature="0"
     id="path58"
     style="fill:none;stroke:#0000ff;stroke-width:105.97512054;stroke-linecap:round;stroke-linejoin:miter;stroke-miterlimit:4;stroke-dasharray:none;stroke-opacity:0.50196078"
     d="m 20537.459,317.67848 0,0" />
  <path
     inkscape:connector-curvature="0"
     id="path60"
     style="fill:none;stroke:#0000ff;stroke-width:105.97512054;stroke-linecap:round;stroke-linejoin:miter;stroke-miterlimit:4;stroke-dasharray:none;stroke-opacity:0.50196078"
     d="m 20345.174,317.24208 0,0" />
  <path
     inkscape:connector-curvature="0"
     id="path62"
     style="fill:none;stroke:#0000ff;stroke-width:105.97512054;stroke-linecap:round;stroke-linejoin:miter;stroke-miterlimit:4;stroke-dasharray:none;stroke-opacity:0.50196078"
     d="m 20440.199,223.09008 0,0" />
  <path
     inkscape:connector-curvature="0"
     id="path70"
     style="fill:none;stroke:#0000ff;stroke-width:105.97512054;stroke-linecap:butt;stroke-linejoin:round;stroke-miterlimit:4;stroke-dasharray:none;stroke-opacity:0.50196078"
     d="m 10874.681,195.22674 268.263,1.2265 c 29.197,0.1279 51.697,22.3716 51.697,53.1261 l 0,550.9227" />
  <path
     inkscape:connector-curvature="0"
     id="path72"
     style="fill:none;stroke:#0000ff;stroke-width:105.97512054;stroke-linecap:butt;stroke-linejoin:round;stroke-miterlimit:4;stroke-dasharray:none;stroke-opacity:0.50196078"
     d="m 13087.688,195.18904 -174.052,1.2341 c -29.272,0.2033 -51.772,22.3641 -51.772,53.126 l 0,550.9153" />
  <path
     inkscape:connector-curvature="0"
     id="path74"
     style="fill:none;stroke:#0000ff;stroke-width:105.97512054;stroke-linecap:butt;stroke-linejoin:round;stroke-miterlimit:4;stroke-dasharray:none;stroke-opacity:0.50196078"
     d="m 13180.47,140.51476 0,659.2441" />
  <g
     id="g5075"
     transform="translate(1080,-1.1063232)">
    <path
       d="m 11628.431,141.46842 0,182.5774 c 0,29.2419 -22.349,51.749 -53.126,51.7565 l -82.247,0"
       style="fill:none;stroke:#0000ff;stroke-width:105.97512054;stroke-linecap:butt;stroke-linejoin:round;stroke-miterlimit:4;stroke-dasharray:none;stroke-opacity:0.50196078"
       id="path80"
       inkscape:connector-curvature="0" />
    <path
       d="m 11445.199,141.60392 0,182.5849 c 0,29.2419 -22.349,51.7414 -53.126,51.7414 l -82.323,0.014"
       style="fill:none;stroke:#0000ff;stroke-width:105.97512054;stroke-linecap:butt;stroke-linejoin:round;stroke-miterlimit:4;stroke-dasharray:none;stroke-opacity:0.50196078"
       id="path82"
       inkscape:connector-curvature="0" />
    <path
       d="m 11260.989,141.27282 0,659.6204"
       style="fill:none;stroke:#0000ff;stroke-width:105.97512054;stroke-linecap:butt;stroke-linejoin:round;stroke-miterlimit:4;stroke-dasharray:none;stroke-opacity:0.50196078"
       id="path84"
       inkscape:connector-curvature="0" />
  </g>
  <path
     inkscape:connector-curvature="0"
     id="path86"
     style="fill:none;stroke:#0000ff;stroke-width:105.97512054;stroke-linecap:butt;stroke-linejoin:round;stroke-miterlimit:4;stroke-dasharray:none;stroke-opacity:0.50196078"
     d="m 23613.734,184.57162 -174.752,128.0366 c -38.866,27.9025 -27.089,51.4481 1.641,82.413 l 132.679,121.0536 -143.575,160.1005 c -24.599,26.4727 -36.007,53.1109 -8.549,70.7343 l 313.12,0.21831"
     sodipodi:nodetypes="ccccccc" />
  <path
     sodipodi:nodetypes="ccccccc"
     inkscape:connector-curvature="0"
     id="path88"
     style="fill:none;stroke:#0000ff;stroke-width:105.97512054;stroke-linecap:butt;stroke-linejoin:round;stroke-miterlimit:4;stroke-dasharray:none;stroke-opacity:0.50196078"
     d="m 12100.642,192.23344 -156.593,115.756 c -26.85,23.2731 -51.397,35.3739 -7.751,68.2887 l 127.924,88.0718 -134.17,193.0823 c -20.317,28.3313 -57.429,89.8295 -2.542,89.5692 l 283.598,0.602" />
  <path
     inkscape:connector-curvature="0"
     id="path90"
     style="fill:none;stroke:#0000ff;stroke-width:105.97512054;stroke-linecap:butt;stroke-linejoin:round;stroke-miterlimit:4;stroke-dasharray:none;stroke-opacity:0.50196078"
     d="m 9767.9814,799.72692 0.2258,-483.4318 c -19.4444,-132.6871 -151.0629,-143.523 -214.5583,-99.9461 -54.3075,29.0763 -91.0517,113.9877 -43.6747,190.6667 54.2021,78.011 119.3379,51.2147 218.2531,58.2731" />
  <path
     inkscape:connector-curvature="0"
     id="path92"
     style="fill:none;stroke:#0000ff;stroke-width:105.97512054;stroke-linecap:butt;stroke-linejoin:round;stroke-miterlimit:4;stroke-dasharray:none;stroke-opacity:0.50196078"
     d="m 10766.773,162.23246 -152.38,580.7065 c -7.149,17.5857 -39.656,18.4887 -49.664,0.2258 l -186.543,-580.9322" />
  <path
     inkscape:connector-curvature="0"
     id="path94"
     style="fill:none;stroke:#0000ff;stroke-width:105.97512054;stroke-linecap:butt;stroke-linejoin:round;stroke-miterlimit:4;stroke-dasharray:none;stroke-opacity:0.50196078"
     d="m 9942.0632,793.1413 152.4328,-580.6989 c 7.148,-17.5934 39.656,-18.4888 49.664,-0.2259 l 186.468,580.9247" />
  <path
     inkscape:connector-curvature="0"
     id="path96"
     style="fill:none;stroke:#0000ff;stroke-width:99.3614502;stroke-linecap:butt;stroke-linejoin:round;stroke-miterlimit:4;stroke-dasharray:none;stroke-opacity:0.50196078"
     d="m 11617.241,232.66632 c 125.44,77.1682 233.8,525.481 -55.835,527.287 -289.56,1.7985 -183.834,-443.8505 -62.156,-524.3071 37.926,-25.0957 80.441,-26.0664 117.991,-2.9799 z" />
  <path
     inkscape:connector-curvature="0"
     id="path98"
     style="fill:none;stroke:#0000ff;stroke-width:105.97512054;stroke-linecap:butt;stroke-linejoin:round;stroke-miterlimit:4;stroke-dasharray:none;stroke-opacity:0.50196078"
     d="m 24794.769,944.89517 -625.751,-0.1175 c -215.71,-7.1399 -203.316,-195.5281 -77.16,-228.1998 110.352,-28.5857 98.162,-74.9815 122.197,-109.2613 72.826,-103.8824 184.436,-60.9813 238.134,-27.3215" />
  <path
     inkscape:connector-curvature="0"
     id="path102"
     style="fill:none;stroke:#0000ff;stroke-width:58.87506104;stroke-linecap:butt;stroke-linejoin:miter;stroke-miterlimit:4;stroke-dasharray:none;stroke-opacity:0.50196078"
     d="m 25691.671,557.71262 -273.575,276.3079" />
  <g
     id="g5700"
     transform="translate(0,99.013237)">
    <path
       d="m 26391.295,520.64911 -388.828,1.2718"
       style="fill:none;stroke:#0000ff;stroke-width:58.87506104;stroke-linecap:butt;stroke-linejoin:miter;stroke-miterlimit:4;stroke-dasharray:none;stroke-opacity:0.50196078"
       id="path104"
       inkscape:connector-curvature="0" />
    <path
       d="m 26391.295,671.36601 -388.828,1.2717"
       style="fill:none;stroke:#0000ff;stroke-width:58.87506104;stroke-linecap:butt;stroke-linejoin:miter;stroke-miterlimit:4;stroke-dasharray:none;stroke-opacity:0.50196078"
       id="path106"
       inkscape:connector-curvature="0" />
  </g>
  <path
     inkscape:connector-curvature="0"
     id="path108"
     style="fill:none;stroke:#0000ff;stroke-width:58.87506104;stroke-linecap:butt;stroke-linejoin:miter;stroke-miterlimit:4;stroke-dasharray:none;stroke-opacity:0.50196078"
     d="m 26682.55,576.66029 c 57.175,-2.4305 104.709,47.8661 104.868,101.1802 0,53.3142 -45.91,96.4396 -101.166,96.718 -55.263,0 -98.162,-41.6957 -102.662,-95.2355 -4.508,-53.5249 41.763,-100.2848 98.96,-102.6627 z" />
  <g
     id="g5696"
     transform="translate(448.10873,910.07649)">
    <path
       d="m 27316.32,-342.74629 c 57.182,-2.4231 104.709,47.866 104.867,101.1801 0,53.3066 -45.917,96.4395 -101.165,96.7179 -55.255,0 -98.163,-41.6956 -102.662,-95.2355 -4.508,-53.5248 41.763,-100.2847 98.96,-102.6625 z"
       style="fill:none;stroke:#0000ff;stroke-width:58.87506104;stroke-linecap:butt;stroke-linejoin:miter;stroke-miterlimit:4;stroke-dasharray:none;stroke-opacity:0.50196078"
       id="path110"
       inkscape:connector-curvature="0" />
    <path
       d="m 26996.383,-142.30479 315.542,-3.0928"
       style="fill:none;stroke:#0000ff;stroke-width:58.87506104;stroke-linecap:butt;stroke-linejoin:miter;stroke-miterlimit:4;stroke-dasharray:none;stroke-opacity:0.50196078"
       id="path112"
       inkscape:connector-curvature="0" />
  </g>
  <g
     id="g5692"
     transform="translate(281.80034,1002.47)">
    <path
       d="m 26790.839,-408.80789 c 37.293,-43.4189 106.493,-43.8025 145.532,-7.5098 38.942,36.4057 39.085,99.4043 1.55,139.9562 -37.737,40.3562 -97.5,43.2232 -139.678,9.948 -42.162,-33.2677 -44.735,-98.9981 -7.404,-142.3944 z"
       style="fill:none;stroke:#0000ff;stroke-width:58.87506104;stroke-linecap:butt;stroke-linejoin:miter;stroke-miterlimit:4;stroke-dasharray:none;stroke-opacity:0.50196078"
       id="path114"
       inkscape:connector-curvature="0" />
    <path
       d="m 26718.75,-38.219994 213.249,-232.603196"
       style="fill:none;stroke:#0000ff;stroke-width:58.87506104;stroke-linecap:butt;stroke-linejoin:miter;stroke-miterlimit:4;stroke-dasharray:none;stroke-opacity:0.50196078"
       id="path116"
       inkscape:connector-curvature="0" />
  </g>
  <path
     inkscape:connector-curvature="0"
     id="path118"
     style="fill:none;stroke:#0000ff;stroke-width:105.97512054;stroke-linecap:butt;stroke-linejoin:round;stroke-miterlimit:4;stroke-dasharray:none;stroke-opacity:0.50196078"
     d="m 23109.694,1022.7813 -437.357,-0.1145 c -215.709,-7.1426 -203.316,-195.53078 -77.16,-228.20248 110.361,-28.5737 100.857,-73.2477 122.205,-109.2613 53.276,-89.8755 162.365,-83.9797 202.962,-6.4639 26.014,49.68693 60.965,68.05277 115.318,68.04817 l 74.015,-0.006"
     sodipodi:nodetypes="cccscsc" />
  <g
     id="g5017"
     transform="translate(-480,-17.44808)">
    <path
       sodipodi:nodetypes="cc"
       style="fill:none;fill-opacity:1;fill-rule:evenodd;stroke:#0000ff;stroke-width:105.97499847;stroke-linecap:butt;stroke-linejoin:miter;stroke-miterlimit:4;stroke-dasharray:none;stroke-opacity:0.50196078"
       d="m -5039.6555,136.9728 130.954,449.7704"
       id="path5555"
       inkscape:connector-curvature="0" />
    <path
       sodipodi:nodetypes="cccc"
       inkscape:connector-curvature="0"
       id="path4381-5-1"
       d="m -4834.7267,157.6403 0,553.1843 c 0,32.2776 -22.112,53.832 -50.5206,53.832 l -235.2831,0"
       style="fill:none;fill-rule:evenodd;stroke:#0000ff;stroke-width:105.97499847;stroke-linecap:butt;stroke-linejoin:miter;stroke-miterlimit:4;stroke-dasharray:none;stroke-opacity:0.50196078" />
    <path
       sodipodi:nodetypes="ccccsccccccccc"
       inkscape:connector-curvature="0"
       id="path3801"
       d="m -4871.115,554.3042 -100.6027,0.736 -1.1775,0 0.073,1.1775 c 1.3807,50.8581 -12.0232,85.3129 -33.7794,111.2021 -21.7565,25.8893 -51.9772,43.2433 -84.4857,59.4638 l 0.5151,2.2078 79.9228,-1.6191 0.2944,-0.073 0.2943,-0.073 c 90.6303,-50.6499 129.4737,-108.7944 140.1225,-171.6225 l 0.2214,-1.3984 -1.3982,0 z"
       style="color:#000000;font-style:normal;font-variant:normal;font-weight:normal;font-stretch:normal;font-size:medium;line-height:normal;font-family:Sans;-inkscape-font-specification:Sans;text-indent:0;text-align:start;text-decoration:none;text-decoration-line:none;letter-spacing:normal;word-spacing:normal;text-transform:none;direction:ltr;block-progression:tb;writing-mode:lr-tb;baseline-shift:baseline;text-anchor:start;display:inline;overflow:visible;visibility:visible;fill:#000000;fill-opacity:1;fill-rule:nonzero;stroke:none;stroke-width:1px;marker:none;enable-background:accumulate" />
  </g>
  <path
     style="fill:none;fill-rule:evenodd;stroke:#0000ff;stroke-width:105.97499847;stroke-linecap:butt;stroke-linejoin:miter;stroke-miterlimit:4;stroke-dasharray:none;stroke-opacity:0.50196078"
     d="m 4833.9626,747.19542 -138.4987,-0.10236 c -44.5121,-0.1766 -68.945,36.2814 -36.8379,77.8469 l 110.6111,133.6171 c 19.209,19.209 7.5861,62.55514 -42.5935,62.55514 l -230.0595,0 c -64.0609,0 -141.3278,-34.03234 -141.3278,-125.44524 l 0,-195.931"
     id="path4313-4"
     inkscape:connector-curvature="0"
     sodipodi:nodetypes="cccccccc" />
  <g
     id="g5059"
     transform="translate(-460,10.391118)">
    <path
       sodipodi:nodetypes="cc"
       inkscape:connector-curvature="0"
       id="path4332"
       d="m 4212.1184,736.9206 467.7254,0"
       style="fill:none;fill-rule:evenodd;stroke:#0000ff;stroke-width:105.97499847;stroke-linecap:butt;stroke-linejoin:miter;stroke-miterlimit:4;stroke-dasharray:none;stroke-opacity:0.50196078" />
    <path
       sodipodi:nodetypes="cc"
       inkscape:connector-curvature="0"
       id="path4334"
       d="m 4630.3702,482.37 c -283.2316,-85.3793 -375.108,51.6961 -177.0042,243.5056"
       style="fill:none;fill-rule:evenodd;stroke:#0000ff;stroke-width:105.97499847;stroke-linecap:butt;stroke-linejoin:miter;stroke-miterlimit:4;stroke-dasharray:none;stroke-opacity:0.50196078" />
  </g>
  <path
     style="fill:none;fill-rule:evenodd;stroke:#0000ff;stroke-width:105.97499847;stroke-linecap:butt;stroke-linejoin:round;stroke-miterlimit:4;stroke-dasharray:none;stroke-opacity:0.50196078"
     d="m 2356.959,747.18467 94.6936,0 c 41.4876,-7.7272 56.7197,-28.137 57.6271,-54.3096 l 0,-130.9001 c -0.6592,-103.5547 127.0044,-133.1013 193.565,-62.6651 147.5266,156.1172 45.0523,247.99383 -81.4607,247.99383 l -65.2897,-0.21052"
     id="path4346"
     inkscape:connector-curvature="0"
     sodipodi:nodetypes="ccccscc" />
  <path
     style="fill:none;fill-rule:evenodd;stroke:#0000ff;stroke-width:105.97499847;stroke-linecap:butt;stroke-linejoin:round;stroke-miterlimit:4;stroke-dasharray:none;stroke-opacity:0.50196078"
     d="m 3676.9423,747.1962 -111.6892,-0.0234 c -25.605,0 -46.8233,-19.835 -46.8233,-45.3931 l -3.9665,-82.5086 c -3.0087,-62.5874 -63.1856,-96.5279 -130.7218,-58.6897 -39.6314,22.2044 -78.4533,48.4575 -113.9172,82.093 -18.5214,16.0479 -20.2917,52.9036 0.4168,71.7954 l 114.8555,129.7563 c 26.7287,26.7288 -3.699,66.2509 -39.7199,66.0615 l -265.6379,0 c -68.7545,1.2084 -115.4148,-56.1097 -115.4148,-124.043 l 0,-203.3613"
     id="path4348-6"
     inkscape:connector-curvature="0"
     sodipodi:nodetypes="cccssccccccc" />
  <g
     id="g5055"
     transform="translate(-280,186.74213)">
    <path
       sodipodi:nodetypes="cc"
       inkscape:connector-curvature="0"
       id="path4365"
       d="m 2575.9,560.1806 -253.383,0"
       style="fill:none;fill-rule:evenodd;stroke:#0000ff;stroke-width:105.97499847;stroke-linecap:butt;stroke-linejoin:miter;stroke-miterlimit:4;stroke-dasharray:none;stroke-opacity:0.50196078" />
    <path
       sodipodi:nodetypes="cccccc"
       inkscape:connector-curvature="0"
       id="path4367"
       d="m 2419.5986,555.3265 0,142.71 c 0,21.0153 -15.7827,50.3383 -46.5991,50.3383 l -136.8851,0 c -82.03,0 -178.63,-55.5396 -178.63,-138.6826 l 0,-182.5132"
       style="fill:none;fill-rule:evenodd;stroke:#0000ff;stroke-width:105.97499847;stroke-linecap:butt;stroke-linejoin:miter;stroke-miterlimit:4;stroke-dasharray:none;stroke-opacity:0.50196078" />
  </g>
  <g
     id="g5022"
     transform="translate(0,-6)">
    <path
       sodipodi:nodetypes="cccc"
       inkscape:connector-curvature="0"
       id="path4381-5"
       d="m -4827.3154,146.2223 0,553.185 c 0,32.2774 -22.112,53.832 -50.5206,53.832 l -280.2158,0"
       style="fill:none;fill-rule:evenodd;stroke:#0000ff;stroke-width:105.97499847;stroke-linecap:butt;stroke-linejoin:miter;stroke-miterlimit:4;stroke-dasharray:none;stroke-opacity:0.50196078" />
    <path
       inkscape:connector-curvature="0"
       id="path4383-9"
       d="m -5009.4893,241.6405 0,504.8718"
       style="fill:none;fill-rule:evenodd;stroke:#0000ff;stroke-width:105.97499847;stroke-linecap:butt;stroke-linejoin:miter;stroke-miterlimit:4;stroke-dasharray:none;stroke-opacity:0.50196078" />
  </g>
  <g
     id="g5013"
     transform="translate(-335.58981,1.3350773)">
    <path
       sodipodi:nodetypes="cccc"
       inkscape:connector-curvature="0"
       id="path4381-5-7"
       d="m -5387.1807,139.8987 0,549.3998 c 0,32.2774 -22.112,56.6057 -50.5206,56.6057 l -189.8877,0"
       style="fill:none;fill-rule:evenodd;stroke:#0000ff;stroke-width:105.97499847;stroke-linecap:butt;stroke-linejoin:miter;stroke-miterlimit:4;stroke-dasharray:none;stroke-opacity:0.50196078" />
    <path
       sodipodi:nodetypes="cc"
       inkscape:connector-curvature="0"
       id="path4383-9-7"
       d="m -5569.3546,140.1923 0,501.1732"
       style="fill:none;fill-rule:evenodd;stroke:#0000ff;stroke-width:105.29348755;stroke-linecap:butt;stroke-linejoin:miter;stroke-miterlimit:4;stroke-dasharray:none;stroke-opacity:0.50196078" />
  </g>
  <g
     id="g5026"
     transform="translate(0,-26.193034)">
    <path
       sodipodi:nodetypes="ccccsc"
       inkscape:connector-curvature="0"
       id="path20-4"
       style="fill:none;stroke:#0000ff;stroke-width:105.97512054;stroke-linecap:butt;stroke-linejoin:round;stroke-miterlimit:4;stroke-dasharray:none;stroke-opacity:0.50196078"
       d="m -4485.1991,756.5052 c 104.1527,-143.5758 204.2416,-292.9457 320.1634,-250.0461 49.6571,20.5959 74.6024,66.054 76.2052,148.0532 l 2.8142,67.19 c 1.2192,29.2195 -22.3565,51.7566 -53.1335,51.7566 l -465.4191,0" />
    <path
       sodipodi:nodetypes="cc"
       inkscape:connector-curvature="0"
       id="path4383-9-1"
       d="m -4471.964,165.4883 0,572.8717"
       style="fill:none;fill-rule:evenodd;stroke:#0000ff;stroke-width:105.97499847;stroke-linecap:butt;stroke-linejoin:miter;stroke-miterlimit:4;stroke-dasharray:none;stroke-opacity:0.50196078" />
  </g>
  <g
     id="g5046">
    <path
       inkscape:connector-curvature="0"
       id="path64-8"
       style="fill:none;stroke:#0000ff;stroke-width:105.97512054;stroke-linecap:butt;stroke-linejoin:round;stroke-miterlimit:4;stroke-dasharray:none;stroke-opacity:0.50196078"
       d="m -1871.8525,423.32297 0.024,272.0715 c 0,29.242 -22.3641,51.7414 -53.1411,51.7565 l -82.2625,0" />
    <path
       inkscape:connector-curvature="0"
       id="path66-6"
       style="fill:none;stroke:#0000ff;stroke-width:105.97512054;stroke-linecap:butt;stroke-linejoin:round;stroke-miterlimit:4;stroke-dasharray:none;stroke-opacity:0.50196078"
       d="m -2055.1297,423.46607 0,272.0638 c 0,29.242 -22.3641,51.749 -53.1185,51.749 l -82.2776,0" />
    <path
       sodipodi:nodetypes="cccc"
       inkscape:connector-curvature="0"
       id="path64-4"
       style="fill:none;stroke:#0000ff;stroke-width:105.97512054;stroke-linecap:butt;stroke-linejoin:round;stroke-miterlimit:4;stroke-dasharray:none;stroke-opacity:0.50196078"
       d="m -2237.5776,423.24749 0.024,272.0715 c 0,29.242 -22.3641,51.7415 -53.1411,51.7565 l -178.533,0" />
  </g>
  <path
     d="m -1361.6003,423.4903 0.024,272.0717 c 0,29.242 -22.3641,51.7415 -53.1411,51.7565 l -288.2432,0"
     style="fill:none;stroke:#0000ff;stroke-width:105.97512054;stroke-linecap:butt;stroke-linejoin:round;stroke-miterlimit:4;stroke-dasharray:none;stroke-opacity:0.50196078"
     id="path64-4-9"
     inkscape:connector-curvature="0"
     sodipodi:nodetypes="cccc" />
  <path
     style="fill:none;fill-rule:evenodd;stroke:#0000ff;stroke-width:105.97499847;stroke-linecap:butt;stroke-linejoin:round;stroke-miterlimit:4;stroke-dasharray:none;stroke-opacity:0.50196078"
     d="m -3530.1774,747.568 -288.2824,0 c -60.909,-1.0633 -107.1657,-51.0232 -104.0825,-102.9922 15.6409,-179.8483 263.1352,-232.2562 263.7032,-77.9222 l 0,234.0804 c 0,73.9924 -55.2942,146.7381 -138.2314,146.7381 l -192.461,0"
     id="path4474"
     inkscape:connector-curvature="0"
     sodipodi:nodetypes="ccccccc" />
  <g
     id="g5030"
     transform="translate(-200,195.53352)">
    <path
       sodipodi:nodetypes="cccc"
       inkscape:connector-curvature="0"
       id="path4476"
       d="m -3017.4642,416.9701 0,188.5542 c 0,82.1295 -58.6346,146.5745 -139.4591,146.5745 l -101.7483,0"
       style="fill:none;fill-rule:evenodd;stroke:#0000ff;stroke-width:105.97499847;stroke-linecap:butt;stroke-linejoin:miter;stroke-miterlimit:4;stroke-dasharray:none;stroke-opacity:0.50196078" />
    <path
       sodipodi:nodetypes="cc"
       inkscape:connector-curvature="0"
       id="path4478"
       d="m -2863.0631,551.6186 -125.2286,0"
       style="fill:none;fill-rule:evenodd;stroke:#0000ff;stroke-width:105.97499847;stroke-linecap:butt;stroke-linejoin:miter;stroke-miterlimit:4;stroke-dasharray:none;stroke-opacity:0.50196078" />
  </g>
  <path
     style="fill:none;fill-rule:evenodd;stroke:#0000ff;stroke-width:105.97499847;stroke-linecap:butt;stroke-linejoin:miter;stroke-miterlimit:4;stroke-dasharray:none;stroke-opacity:0.50196078"
     d="m -2895.0102,140.6917 0,551.9769 c 0,26.916 -19.5211,54.4889 -53.6842,54.4889 l -86.9635,0"
     id="path4492"
     inkscape:connector-curvature="0"
     sodipodi:nodetypes="cccc" />
  <path
     style="fill:none;fill-rule:evenodd;stroke:#0000ff;stroke-width:105.97499847;stroke-linecap:butt;stroke-linejoin:miter;stroke-miterlimit:4;stroke-dasharray:none;stroke-opacity:0.50196078"
     d="m -2665.3951,140.24756 0.2614,550.7693 c 0,3.5306 4.9412,56.1639 -53.0711,56.1639"
     id="path4494"
     inkscape:connector-curvature="0"
     sodipodi:nodetypes="ccc" />
  <g
     id="g5039"
     transform="translate(-20,198.46247)">
    <path
       sodipodi:nodetypes="cc"
       inkscape:connector-curvature="0"
       id="path4516"
       d="m -54.00572,548.8147 -121.0259,0"
       style="fill:none;fill-rule:evenodd;stroke:#0000ff;stroke-width:105.97499847;stroke-linecap:butt;stroke-linejoin:miter;stroke-miterlimit:4;stroke-dasharray:none;stroke-opacity:0.50196078" />
    <path
       sodipodi:nodetypes="cccccc"
       inkscape:connector-curvature="0"
       id="path4518"
       d="m -207.86941,413.7779 0,271.2039 c 0.32539,25.8562 -22.56418,52.0064 -51.29233,52.0064 l -138.59417,0 c -80.56563,0 -173.99119,-62.5637 -173.99119,-132.3863 l 0,-190.2344"
       style="fill:none;fill-rule:evenodd;stroke:#0000ff;stroke-width:105.97499847;stroke-linecap:butt;stroke-linejoin:miter;stroke-miterlimit:4;stroke-dasharray:none;stroke-opacity:0.50196078" />
  </g>
  <path
     style="fill:none;fill-rule:evenodd;stroke:#0000ff;stroke-width:105.97499847;stroke-linecap:butt;stroke-linejoin:miter;stroke-miterlimit:4;stroke-dasharray:none;stroke-opacity:0.50196078"
     d="m -1037.2552,470.35647 c 71.6549,36.4507 179.8874,96.5275 185.8406,225.752 0.47218,23.3745 -14.66811,51.4862 -52.46681,51.4862 l -263.80549,0"
     id="path4524"
     inkscape:connector-curvature="0"
     sodipodi:nodetypes="cccc" />
  <g
     id="g5051"
     transform="translate(0,-50.568086)">
    <path
       sodipodi:nodetypes="cccc"
       inkscape:connector-curvature="0"
       id="path4492-4"
       d="m 903.481,191.37 0,551.9769 c 0,26.916 -19.521,54.4888 -53.6841,54.4888 l -322.4635,0"
       style="fill:none;fill-rule:evenodd;stroke:#0000ff;stroke-width:105.97499847;stroke-linecap:butt;stroke-linejoin:miter;stroke-miterlimit:4;stroke-dasharray:none;stroke-opacity:0.50196078" />
    <path
       sodipodi:nodetypes="cccccc"
       inkscape:connector-curvature="0"
       id="path4541"
       d="m 764.8589,420.8202 -99.7871,0 c -20.28771,0.0536 -14.8165,8.67286 -10.8108,17.4822 l 35.8825,76.086 c 3.89288,9.4425 10.07912,17.8834 -7.2209,17.4564 l -110.649,0"
       style="fill:none;fill-rule:evenodd;stroke:#0000ff;stroke-width:75.36000061;stroke-linecap:butt;stroke-linejoin:miter;stroke-miterlimit:4;stroke-dasharray:none;stroke-opacity:0.50196078" />
  </g>
  <path
     style="fill:none;fill-rule:evenodd;stroke:#0000ff;stroke-width:105.97499847;stroke-linecap:butt;stroke-linejoin:miter;stroke-miterlimit:4;stroke-dasharray:none;stroke-opacity:0.50196078"
     d="m 1518.6007,104.3742 0,737.3752 c 0,26.916 -19.5211,54.4888 -53.6841,54.4888 l -259.4706,0.4859 c -32.5657,0 -54.0284,-20.1826 -54.0284,-52.3197 l -0.1413,-189.2454"
     id="path4492-4-5"
     inkscape:connector-curvature="0"
     sodipodi:nodetypes="cccccc" />
  <path
     style="fill:none;fill-rule:evenodd;stroke:#0000ff;stroke-width:105.975;stroke-linecap:butt;stroke-linejoin:round;stroke-miterlimit:4;stroke-dasharray:none;stroke-opacity:0.50196078"
     d="m -6128.1515,436.124 0,258.7605 c 0,27.8305 -23.376,52.2415 -51.8036,52.2415 l -140.3192,0 c -71.9996,0 -114.2038,-75.9259 -62.5551,-133.0363 68.7203,-64.7917 125.2252,-100.6146 170.4348,-208.8963"
     id="path4558"
     inkscape:connector-curvature="0"
     sodipodi:nodetypes="cccccc" />
  <path
     style="fill:none;fill-rule:evenodd;stroke:#0000ff;stroke-width:105.97499847;stroke-linecap:butt;stroke-linejoin:miter;stroke-miterlimit:4;stroke-dasharray:none;stroke-opacity:0.50196078"
     d="M 8778.0275,31.115084 C 8570.1027,375.59579 8563.5047,722.31679 8780.1979,1089.3263"
     id="path4560"
     inkscape:connector-curvature="0"
     sodipodi:nodetypes="cc" />
  <path
     style="fill:none;fill-rule:evenodd;stroke:#0000ff;stroke-width:105.97499847;stroke-linecap:butt;stroke-linejoin:miter;stroke-miterlimit:4;stroke-dasharray:none;stroke-opacity:0.50196078"
     d="m 9122.4474,83.6399 -141.012,0 0,952.7202 142.0451,0"
     id="path4562"
     inkscape:connector-curvature="0"
     sodipodi:nodetypes="cccc" />
  <path
     style="fill:none;fill-rule:evenodd;stroke:#0000ff;stroke-width:105.97499847;stroke-linecap:butt;stroke-linejoin:miter;stroke-miterlimit:4;stroke-dasharray:none;stroke-opacity:0.50196078"
     d="m 8489.7062,82.567142 c -76.4247,-2.2181 -140.9277,36.710998 -140.9277,107.438008 l 0,252.3804 c 0,72.3437 -52.0582,117.6718 -140.1213,117.6718 86.7702,0 140.6914,41.1564 140.6914,117.1626 l 0,237.3671 c 0,88.09415 64.4291,122.94015 140.3576,122.94015"
     id="path4564"
     inkscape:connector-curvature="0"
     sodipodi:nodetypes="ccccccc" />
  <g
     transform="translate(-673.2339,-284.62335)"
     id="g4270"
     style="fill:none;stroke:#0000ff;stroke-opacity:0.50196078;stroke-width:105.975;stroke-miterlimit:4;stroke-dasharray:none;stroke-linejoin:round">
    <path
       inkscape:connector-curvature="0"
       style="fill:none;fill-rule:evenodd;stroke:#0000ff;stroke-width:105.975;stroke-linecap:butt;stroke-linejoin:round;stroke-miterlimit:4;stroke-dasharray:none;stroke-opacity:0.50196078"
       d="m -6119.7026,1323.8206 0,-239.8058 c 0,-27.8305 23.376,-52.2415 51.8036,-52.2415 l 140.3192,0"
       id="path4253"
       sodipodi:nodetypes="cssc" />
    <path
       inkscape:connector-curvature="0"
       id="path4255"
       style="fill:none;fill-rule:evenodd;stroke:#0000ff;stroke-width:105.975;stroke-linecap:butt;stroke-linejoin:round;stroke-miterlimit:4;stroke-dasharray:none;stroke-opacity:0.50196078"
       d="m -6212.3943,1346.8049 c -20.4425,-104.3715 -59.6848,-112.1397 -96.1789,-170.5738 -34.1975,-54.7567 -16.8593,-142.8546 -66.8494,-144.4578 l -140.3192,0" />
  </g>
</svg>
